ply
format ascii 1.0
comment Created by CloudCompare v2.14.beta (Dec  7 2025)
comment Created 2025-12-16T17:59:45
obj_info Generated by CloudCompare!
element vertex 2171
property float x
property float y
property float z
property float scalar_Scalar_field
end_header
-428.931213 350.752014 -79.166603 2.000000 
-368.121094 521.895996 -137.538605 2.000000 
-250.763504 528.841125 -131.516403 2.000000 
-250.813904 528.967102 -131.590393 2.000000 
-250.747498 529.833618 -131.808807 2.000000 
-250.820602 530.217224 -131.866501 2.000000 
-250.620407 530.468811 -131.971893 2.000000 
-404.099396 543.886475 -126.709702 6.000000 
-404.153595 544.759888 -126.186501 6.000000 
-404.247406 545.576294 -126.530899 6.000000 
-404.198914 545.888977 -126.334000 6.000000 
-403.900299 547.118103 -125.922997 6.000000 
-403.838501 542.982605 -126.756104 6.000000 
-403.617889 543.309875 -125.356300 6.000000 
-403.659088 543.726501 -125.149200 6.000000 
-403.595886 544.461792 -124.670700 6.000000 
-403.393188 544.834717 -124.204803 6.000000 
-403.592987 545.163025 -124.538803 6.000000 
-403.673309 545.746399 -124.714699 6.000000 
-403.826202 546.434387 -125.244301 6.000000 
-403.653809 546.954224 -125.078201 6.000000 
-403.769989 547.180603 -125.545502 6.000000 
-403.407806 547.642822 -124.997101 6.000000 
-403.491913 548.493713 -126.450897 6.000000 
-403.253601 541.878906 -126.223503 6.000000 
-403.260101 542.458618 -125.273804 6.000000 
-403.387299 542.922302 -125.106598 6.000000 
-403.086487 543.289185 -124.225098 6.000000 
-403.062286 544.024414 -123.857697 6.000000 
-403.002899 544.753418 -123.600502 6.000000 
-403.244385 545.024170 -123.934601 6.000000 
-403.370209 545.345215 -124.125999 6.000000 
-403.131012 545.718201 -123.761398 6.000000 
-403.067200 546.261780 -123.750000 6.000000 
-403.119202 546.876709 -124.016998 6.000000 
-403.315613 547.278015 -124.552002 6.000000 
-403.275696 547.723816 -124.778900 6.000000 
-403.196594 548.543091 -125.465797 6.000000 
-402.986786 549.064880 -125.729202 6.000000 
-402.749298 541.105408 -126.070801 6.000000 
-402.799286 541.294189 -125.795898 6.000000 
-402.695892 541.905823 -124.626999 6.000000 
-402.785004 542.215576 -124.484497 6.000000 
-402.606293 542.724121 -123.793701 6.000000 
-402.945007 543.595886 -123.840302 6.000000 
-402.885895 543.881897 -123.641296 6.000000 
-402.628906 544.359985 -123.166298 6.000000 
-402.752411 545.140381 -123.227600 6.000000 
-402.745300 545.433289 -123.215599 6.000000 
-402.535400 545.777710 -122.978104 6.000000 
-402.570312 546.606873 -123.167503 6.000000 
-402.692810 546.926392 -123.421898 6.000000 
-403.098602 547.507996 -124.298302 6.000000 
-402.852905 547.937805 -124.173203 6.000000 
-402.681885 548.511414 -124.356903 6.000000 
-402.502991 549.017883 -124.570702 6.000000 
-402.034302 540.080078 -126.404297 6.000000 
-402.046509 540.842590 -124.703697 6.000000 
-402.128113 541.268188 -124.303703 6.000000 
-402.342804 542.071594 -123.869698 6.000000 
-401.901489 542.159302 -123.207603 6.000000 
-402.082397 542.802979 -123.051903 6.000000 
-402.305389 543.242798 -123.116203 6.000000 
-402.329987 543.879089 -122.920998 6.000000 
-402.445587 544.243530 -122.966499 6.000000 
-402.002197 544.948303 -122.388298 6.000000 
-402.301788 545.588379 -122.699303 6.000000 
-402.373108 546.073303 -122.826500 6.000000 
-401.985291 546.543823 -122.501198 6.000000 
-402.130005 546.721497 -122.695396 6.000000 
-402.289307 547.514099 -123.159103 6.000000 
-402.001495 547.998108 -123.071503 6.000000 
-402.240997 548.366211 -123.592201 6.000000 
-402.061096 548.912109 -123.788101 6.000000 
-401.839996 539.813171 -126.662804 6.000000 
-401.755402 540.216797 -125.147903 6.000000 
-401.676300 540.974609 -123.919098 6.000000 
-401.716003 541.502380 -123.466599 6.000000 
-401.918396 541.980774 -123.351997 6.000000 
-401.700195 542.142883 -122.979202 6.000000 
-401.480011 542.836670 -122.383301 6.000000 
-401.476593 543.295593 -122.205101 6.000000 
-401.437805 543.953796 -121.989197 6.000000 
-401.657288 544.296814 -122.126503 6.000000 
-401.728912 544.674683 -122.143799 6.000000 
-401.606812 545.284973 -122.001297 6.000000 
-401.637085 546.017090 -122.075104 6.000000 
-401.500885 546.271912 -121.989601 6.000000 
-401.784790 546.919373 -122.399300 6.000000 
-401.981812 547.182007 -122.682701 6.000000 
-401.474091 547.881104 -122.466103 6.000000 
-401.575897 548.447327 -122.874802 6.000000 
-401.777008 548.761902 -123.310997 6.000000 
-401.142609 539.658875 -124.942596 6.000000 
-401.426086 539.613770 -125.731499 6.000000 
-401.213593 540.205872 -124.168404 6.000000 
-401.171600 540.638611 -123.586998 6.000000 
-401.339111 541.198608 -123.256599 6.000000 
-401.459106 541.902283 -122.862602 6.000000 
-401.286499 542.544495 -122.326103 6.000000 
-401.126007 542.811096 -122.059799 6.000000 
-401.322906 543.653076 -121.957397 6.000000 
-401.277405 544.012329 -121.835297 6.000000 
-401.345306 544.550110 -121.810997 6.000000 
-401.442413 544.871887 -121.867302 6.000000 
-401.116211 545.513428 -121.587898 6.000000 
-401.161896 545.978271 -121.661003 6.000000 
-401.014587 546.133606 -121.562401 6.000000 
-401.192291 547.125610 -121.923798 6.000000 
-401.101013 547.496399 -121.971802 6.000000 
-401.070709 547.654602 -122.007004 6.000000 
-401.221313 548.359192 -122.474998 6.000000 
-400.912415 549.287598 -122.804100 6.000000 
-401.096985 549.127014 -122.859596 6.000000 
-400.450989 538.886719 -125.245102 6.000000 
-400.292694 539.131714 -124.437500 6.000000 
-400.737000 539.918701 -123.869102 6.000000 
-400.954102 540.528809 -123.429604 6.000000 
-400.362793 540.978088 -122.409698 6.000000 
-400.751099 541.451782 -122.437103 6.000000 
-400.669495 541.929688 -122.072098 6.000000 
-400.464691 542.199524 -121.761703 6.000000 
-400.607788 542.670715 -121.673698 6.000000 
-400.673889 543.623718 -121.427002 6.000000 
-400.791412 543.883911 -121.461403 6.000000 
-400.574707 544.547485 -121.200996 6.000000 
-400.868500 544.844788 -121.398300 6.000000 
-400.941101 545.265503 -121.443703 6.000000 
-400.353790 545.689087 -121.031403 6.000000 
-400.668793 546.310730 -121.325500 6.000000 
-400.686890 547.158386 -121.530701 6.000000 
-400.782501 547.273376 -121.638702 6.000000 
-400.700806 547.722290 -121.734398 6.000000 
-400.503601 548.606506 -121.999100 6.000000 
-400.840790 548.885193 -122.449799 6.000000 
-400.221008 538.552490 -125.667503 6.000000 
-400.182007 539.044189 -124.423698 6.000000 
-400.390686 539.292419 -124.308701 6.000000 
-400.036194 539.541199 -123.481796 6.000000 
-400.165405 540.239319 -122.848999 6.000000 
-400.385895 541.110107 -122.334297 6.000000 
-400.160797 541.186218 -122.083900 6.000000 
-400.164612 541.839172 -121.700600 6.000000 
-400.338409 542.333130 -121.600197 6.000000 
-400.385498 542.799683 -121.451103 6.000000 
-400.067902 543.492371 -121.018097 6.000000 
-399.973602 543.697693 -120.909698 6.000000 
-399.915405 544.018982 -120.814003 6.000000 
-400.184387 545.108276 -120.900101 6.000000 
-400.271912 545.663696 -120.973999 6.000000 
-400.028900 545.894104 -120.832497 6.000000 
-400.233307 546.218384 -121.005699 6.000000 
-400.443298 547.156677 -121.351402 6.000000 
-400.070007 547.356018 -121.153000 6.000000 
-400.197296 547.763794 -121.380203 6.000000 
-399.894714 548.548828 -121.520103 6.000000 
-400.193390 549.142883 -122.083099 6.000000 
-399.736786 538.057800 -126.190903 6.000000 
-399.788605 538.821472 -124.242302 6.000000 
-399.644806 539.224609 -123.449203 6.000000 
-399.686615 539.982483 -122.636597 6.000000 
-399.611786 540.330872 -122.259102 6.000000 
-399.765015 540.737305 -122.068298 6.000000 
-399.731995 541.375671 -121.623703 6.000000 
-399.642792 541.805298 -121.329102 6.000000 
-399.252411 542.321411 -120.846199 6.000000 
-399.712891 542.677979 -121.014297 6.000000 
-399.851013 543.394592 -120.895897 6.000000 
-399.710205 543.858521 -120.709198 6.000000 
-399.702393 544.435303 -120.627296 6.000000 
-399.687714 544.727722 -120.596298 6.000000 
-399.596313 545.436829 -120.534698 6.000000 
-399.470398 546.201599 -120.527199 6.000000 
-399.640808 546.476990 -120.670700 6.000000 
-399.787201 546.715393 -120.805801 6.000000 
-399.465088 547.376404 -120.778900 6.000000 
-399.481293 547.938904 -120.981300 6.000000 
-399.626495 548.321228 -121.232803 6.000000 
-399.711700 549.079102 -121.691002 6.000000 
-399.396515 538.027893 -125.389900 6.000000 
-398.934692 537.996521 -124.652702 6.000000 
-399.008911 538.659790 -123.544197 6.000000 
-399.031494 539.324890 -122.721497 6.000000 
-399.183289 539.651489 -122.513000 6.000000 
-399.233490 540.069397 -122.168701 6.000000 
-399.139313 540.854919 -121.513100 6.000000 
-399.094910 541.292297 -121.222000 6.000000 
-398.997803 541.886292 -120.866798 6.000000 
-399.097504 542.213074 -120.792297 6.000000 
-399.101288 542.566711 -120.665802 6.000000 
-398.952393 543.435913 -120.342499 6.000000 
-399.257294 543.945374 -120.422600 6.000000 
-399.283691 544.372375 -120.384903 6.000000 
-399.079498 544.857788 -120.239799 6.000000 
-399.172485 545.312927 -120.288498 6.000000 
-398.736115 545.832581 -120.087097 6.000000 
-399.283813 546.543396 -120.474998 6.000000 
-399.038605 547.036621 -120.444702 6.000000 
-399.218109 547.532898 -120.683800 6.000000 
-399.010803 547.834290 -120.669800 6.000000 
-399.181610 548.392090 -120.992699 6.000000 
-399.247589 549.345093 -121.549698 6.000000 
-398.632599 537.424683 -125.779800 6.000000 
-398.789001 537.584595 -125.536697 6.000000 
-398.587891 538.499329 -123.343399 6.000000 
-398.562592 538.826904 -122.885101 6.000000 
-398.713501 539.339172 -122.436600 6.000000 
-398.417511 540.048096 -121.589302 6.000000 
-398.596710 540.337708 -121.493797 6.000000 
-398.888092 540.800293 -121.376099 6.000000 
-398.667389 541.231628 -120.983200 6.000000 
-398.704987 541.628418 -120.806900 6.000000 
-398.475708 542.328125 -120.392097 6.000000 
-398.850006 542.788574 -120.449600 6.000000 
-398.631805 543.626221 -120.132896 6.000000 
-398.710693 543.588196 -120.181198 6.000000 
-398.661804 544.445618 -120.042603 6.000000 
-398.494293 544.918030 -119.935501 6.000000 
-398.636108 545.203125 -120.004799 6.000000 
-398.613098 545.921692 -120.033798 6.000000 
-398.474091 546.387390 -120.025398 6.000000 
-398.600494 546.961609 -120.198799 6.000000 
-398.852386 547.224182 -120.393402 6.000000 
-398.664398 547.854980 -120.491798 6.000000 
-398.528992 548.895386 -120.872803 6.000000 
-398.582611 548.893127 -120.900299 6.000000 
-397.893402 536.951111 -126.032600 6.000000 
-398.255798 537.192505 -125.832100 6.000000 
-398.073700 537.819214 -123.911102 6.000000 
-397.864899 538.263977 -123.010597 6.000000 
-398.019501 538.784119 -122.488403 6.000000 
-398.304291 539.230408 -122.228500 6.000000 
-398.143707 539.669922 -121.711502 6.000000 
-398.069000 540.410583 -121.112701 6.000000 
-398.335114 540.777527 -121.040199 6.000000 
-398.304504 541.455078 -120.658302 6.000000 
-398.117615 541.510986 -120.529800 6.000000 
-398.238892 542.260986 -120.290001 6.000000 
-398.141510 542.990295 -120.021896 6.000000 
-398.265900 543.113403 -120.053398 6.000000 
-398.380005 543.952393 -119.954102 6.000000 
-398.408813 544.499695 -119.912300 6.000000 
-398.077087 544.462402 -119.757797 6.000000 
-398.006500 544.999329 -119.705002 6.000000 
-397.787689 545.911621 -119.651199 6.000000 
-398.044098 546.487488 -119.840599 6.000000 
-398.107391 546.912903 -119.952003 6.000000 
-398.005707 547.438599 -120.039299 6.000000 
-398.247314 547.845093 -120.280502 6.000000 
-398.133392 548.372375 -120.428299 6.000000 
-398.362396 549.108521 -120.899101 6.000000 
-398.123810 549.383728 -120.933800 6.000000 
-397.450592 536.654724 -126.457497 6.000000 
-397.372711 537.031189 -124.793900 6.000000 
-397.541412 537.667725 -123.633598 6.000000 
-397.642303 538.095581 -123.056702 6.000000 
-397.561096 538.987183 -121.948700 6.000000 
-397.576813 539.292786 -121.672699 6.000000 
-397.574707 539.872925 -121.200401 6.000000 
-397.694397 540.319885 -120.957298 6.000000 
-397.326294 541.046021 -120.351196 6.000000 
-397.550690 541.373474 -120.302696 6.000000 
-397.540314 541.677917 -120.165199 6.000000 
-397.777191 542.330200 -120.036697 6.000000 
-397.472900 542.846375 -119.747704 6.000000 
-397.688904 543.461182 -119.708900 6.000000 
-397.610291 543.784912 -119.621696 6.000000 
-397.638092 544.134094 -119.590797 6.000000 
-397.739014 544.730286 -119.592903 6.000000 
-397.648102 545.336609 -119.553596 6.000000 
-397.620392 545.905701 -119.579803 6.000000 
-397.558105 546.526611 -119.637802 6.000000 
-397.733398 547.116516 -119.833702 6.000000 
-397.327911 547.327515 -119.719803 6.000000 
-397.583008 548.067993 -120.059502 6.000000 
-397.736603 548.417175 -120.264000 6.000000 
-397.887909 549.016724 -120.614403 6.000000 
-397.246002 536.568115 -126.365700 6.000000 
-397.023804 537.140076 -124.120499 6.000000 
-397.452698 538.110474 -122.881302 6.000000 
-396.996307 538.213806 -122.414597 6.000000 
-397.282288 539.075928 -121.688004 6.000000 
-397.203400 539.068909 -121.647003 6.000000 
-397.313110 539.739685 -121.152603 6.000000 
-397.215912 540.409790 -120.648598 6.000000 
-397.025787 540.739929 -120.367897 6.000000 
-397.303101 540.922607 -120.403000 6.000000 
-397.305389 541.676086 -120.056396 6.000000 
-397.081787 542.317505 -119.729103 6.000000 
-397.380798 542.757324 -119.730499 6.000000 
-397.066711 543.047913 -119.528603 6.000000 
-397.386597 543.803589 -119.524200 6.000000 
-397.458099 544.154480 -119.512497 6.000000 
-397.136597 544.817810 -119.343803 6.000000 
-397.187714 545.496521 -119.374702 6.000000 
-397.062195 546.190918 -119.391197 6.000000 
-397.174011 546.224182 -119.438301 6.000000 
-397.290985 546.828613 -119.587097 6.000000 
-397.200409 547.398804 -119.688797 6.000000 
-397.008514 547.732117 -119.713402 6.000000 
-396.960388 548.726929 -120.075996 6.000000 
-396.940186 548.936829 -120.166496 6.000000 
-396.960388 549.315430 -120.369499 6.000000 
-396.712189 536.606628 -125.108803 6.000000 
-396.522003 537.648804 -122.825203 6.000000 
-396.406403 537.503723 -122.953499 6.000000 
-396.694092 538.120117 -122.327003 6.000000 
-396.697815 538.602600 -121.798103 6.000000 
-396.617310 539.040283 -121.342796 6.000000 
-396.841003 539.611084 -120.998199 6.000000 
-396.526306 540.257690 -120.414803 6.000000 
-396.736298 541.093689 -120.059700 6.000000 
-396.216705 541.118225 -119.835899 6.000000 
-396.411896 541.555176 -119.726997 6.000000 
-396.554810 542.357788 -119.505501 6.000000 
-396.089996 542.950073 -119.186699 6.000000 
-396.689697 543.194275 -119.350800 6.000000 
-396.756805 543.834106 -119.272400 6.000000 
-396.688599 544.151672 -119.212898 6.000000 
-396.477692 544.827515 -119.102699 6.000000 
-396.687195 545.438293 -119.186203 6.000000 
-396.431305 545.849121 -119.127502 6.000000 
-396.652496 546.096313 -119.230202 6.000000 
-396.769287 546.754089 -119.375900 6.000000 
-396.522797 547.522400 -119.474297 6.000000 
-396.644897 548.261597 -119.764000 6.000000 
-396.660889 548.570190 -119.894402 6.000000 
-396.613190 548.837097 -119.995697 6.000000 
-396.862610 549.216370 -120.277702 6.000000 
-395.900787 536.053772 -125.962502 6.000000 
-396.187714 536.450684 -124.885201 6.000000 
-396.031891 536.907898 -123.665497 6.000000 
-395.895813 537.643127 -122.425797 6.000000 
-396.313110 538.618530 -121.568398 6.000000 
-395.967712 538.598083 -121.410599 6.000000 
-396.143707 539.314026 -120.885101 6.000000 
-396.509613 539.630188 -120.820801 6.000000 
-396.042206 540.327881 -120.168800 6.000000 
-395.887390 540.903503 -119.809998 6.000000 
-396.298187 541.393188 -119.748497 6.000000 
-395.948486 541.882507 -119.434799 6.000000 
-396.149414 542.585388 -119.293999 6.000000 
-395.677002 542.836487 -119.075996 6.000000 
-396.180695 543.641785 -119.094002 6.000000 
-395.859314 544.334412 -118.919800 6.000000 
-395.862305 544.329773 -118.920998 6.000000 
-396.101013 545.090271 -118.977699 6.000000 
-396.200195 545.100891 -119.009804 6.000000 
-396.222504 546.044617 -119.079300 6.000000 
-396.067505 546.427124 -119.082497 6.000000 
-396.251312 546.988403 -119.247902 6.000000 
-395.910614 547.417725 -119.246101 6.000000 
-396.235992 547.937805 -119.507004 6.000000 
-396.312988 548.462891 -119.727501 6.000000 
-396.097809 548.850830 -119.823303 6.000000 
-395.725189 536.299500 -124.780502 6.000000 
-395.738007 536.339111 -124.682800 6.000000 
-395.484894 537.287292 -122.664398 6.000000 
-395.585602 538.042908 -121.780899 6.000000 
-395.876495 538.207520 -121.753899 6.000000 
-395.692902 538.944092 -120.976898 6.000000 
-395.736511 539.307312 -120.710098 6.000000 
-395.429108 539.956299 -120.150398 6.000000 
-395.797089 540.515320 -119.970497 6.000000 
-395.502197 540.760315 -119.739700 6.000000 
-395.579102 541.114685 -119.603897 6.000000 
-395.576813 541.837891 -119.323898 6.000000 
-395.502106 542.199524 -119.185303 6.000000 
-395.262299 543.046570 -118.906403 6.000000 
-395.508392 543.022888 -118.984200 6.000000 
-395.344696 544.206604 -118.776001 6.000000 
-395.528595 544.466919 -118.813202 6.000000 
-395.422485 545.056213 -118.773697 6.000000 
-395.545288 545.395813 -118.819504 6.000000 
-395.445496 545.802917 -118.820396 6.000000 
-395.697693 546.120483 -118.927002 6.000000 
-395.638306 547.077881 -119.080002 6.000000 
-395.484589 547.461914 -119.133301 6.000000 
-395.753510 547.773071 -119.302399 6.000000 
-395.575714 548.646606 -119.570900 6.000000 
-395.746307 549.106812 -119.832703 6.000000 
-395.720490 549.170715 -119.856400 6.000000 
-394.969299 535.832092 -125.432198 6.000000 
-394.771912 536.395081 -123.715202 6.000000 
-394.833496 536.569702 -123.418999 6.000000 
-395.010712 536.878113 -122.999397 6.000000 
-395.003601 537.479126 -122.145203 6.000000 
-395.181091 537.918091 -121.719101 6.000000 
-394.956604 538.982910 -120.645203 6.000000 
-394.815399 539.273193 -120.378304 6.000000 
-395.264404 540.009827 -120.058502 6.000000 
-395.000488 540.422729 -119.739700 6.000000 
-394.882507 540.960022 -119.445999 6.000000 
-395.268799 541.237000 -119.449097 6.000000 
-394.857391 541.750122 -119.133102 6.000000 
-395.252594 542.305115 -119.078300 6.000000 
-394.920685 542.704224 -118.882301 6.000000 
-395.124512 542.998901 -118.876404 6.000000 
-394.865906 543.829102 -118.680298 6.000000 
-395.225189 543.992615 -118.760300 6.000000 
-395.254395 544.773682 -118.726898 6.000000 
-395.174805 545.181091 -118.708801 6.000000 
-395.004791 546.145020 -118.741203 6.000000 
-394.977692 546.528625 -118.791901 6.000000 
-395.317108 547.021423 -118.977402 6.000000 
-394.908600 547.442627 -118.975899 6.000000 
-395.228485 547.806580 -119.164703 6.000000 
-394.549011 548.507507 -119.245102 6.000000 
-395.064606 548.717712 -119.459396 6.000000 
-395.157013 549.271484 -119.743599 6.000000 
-394.532013 535.494507 -126.537003 6.000000 
-394.607910 536.065308 -124.334900 6.000000 
-394.323792 536.510071 -123.214302 6.000000 
-394.533997 536.933594 -122.646698 6.000000 
-394.317505 537.750183 -121.525002 6.000000 
-394.368286 538.169983 -121.121902 6.000000 
-394.456299 538.707214 -120.682503 6.000000 
-394.439697 539.295471 -120.235802 6.000000 
-394.772095 539.699890 -120.078400 6.000000 
-394.660492 540.377502 -119.656197 6.000000 
-394.903503 540.618896 -119.610199 6.000000 
-394.433289 541.647278 -119.051598 6.000000 
-394.667206 541.826172 -119.054703 6.000000 
-394.240112 542.181824 -118.837502 6.000000 
-394.618286 543.174500 -118.708702 6.000000 
-394.583801 543.415283 -118.661499 6.000000 
-394.701996 544.009827 -118.621201 6.000000 
-394.696991 544.177795 -118.606796 6.000000 
-394.237396 544.836792 -118.476799 6.000000 
-394.498901 545.078796 -118.538300 6.000000 
-394.358307 545.801270 -118.549400 6.000000 
-394.776794 546.473999 -118.733398 6.000000 
-394.683990 547.029724 -118.819397 6.000000 
-394.538391 547.668030 -118.951698 6.000000 
-394.351288 547.502686 -118.862602 6.000000 
-394.617889 548.448914 -119.237999 6.000000 
-394.764191 549.029785 -119.523102 6.000000 
-393.924103 535.450806 -125.699600 6.000000 
-394.023804 535.996521 -124.061699 6.000000 
-393.986786 536.297729 -123.408798 6.000000 
-394.038086 536.656006 -122.818497 6.000000 
-394.254303 537.442871 -121.845001 6.000000 
-394.158203 537.666504 -121.552498 6.000000 
-393.788300 538.222900 -120.871498 6.000000 
-394.018188 538.962097 -120.341103 6.000000 
-394.246002 539.232422 -120.218002 6.000000 
-394.343109 539.767883 -119.900803 6.000000 
-393.701385 540.437805 -119.363800 6.000000 
-394.082001 540.913513 -119.242302 6.000000 
-394.351807 541.320679 -119.148003 6.000000 
-393.987396 541.629822 -118.945702 6.000000 
-394.066589 542.378601 -118.744202 6.000000 
-394.153412 542.923096 -118.642700 6.000000 
-394.099915 543.395325 -118.550499 6.000000 
-394.050293 543.975281 -118.473099 6.000000 
-394.058014 544.001282 -118.472504 6.000000 
-394.059814 544.828918 -118.438797 6.000000 
-393.957306 545.206970 -118.424797 6.000000 
-394.235596 545.645508 -118.508904 6.000000 
-393.998291 546.274597 -118.530701 6.000000 
-394.225006 546.743896 -118.657097 6.000000 
-394.251495 547.737671 -118.909401 6.000000 
-393.989990 548.027588 -118.948402 6.000000 
-394.122192 548.427979 -119.120201 6.000000 
-393.883392 548.627075 -119.151497 6.000000 
-393.707886 549.402893 -119.476601 6.000000 
-393.547394 535.282471 -126.065102 6.000000 
-393.812195 535.774475 -124.466301 6.000000 
-393.253815 536.276306 -123.072098 6.000000 
-393.766998 536.941406 -122.276199 6.000000 
-393.149109 537.072998 -121.869499 6.000000 
-393.506989 537.860779 -121.120903 6.000000 
-393.668488 538.048706 -120.992599 6.000000 
-393.654999 538.833618 -120.329201 6.000000 
-393.256195 539.449280 -119.802002 6.000000 
-393.684692 539.361572 -119.967598 6.000000 
-393.548004 540.185120 -119.453102 6.000000 
-393.408600 540.926575 -119.076897 6.000000 
-393.657715 541.460510 -118.927803 6.000000 
-393.469086 541.653503 -118.821503 6.000000 
-393.532410 542.576477 -118.580902 6.000000 
-393.638794 542.489380 -118.622803 6.000000 
-393.352295 543.122620 -118.439400 6.000000 
-393.321198 544.125305 -118.318398 6.000000 
-393.470306 544.497192 -118.327797 6.000000 
-393.600586 544.729797 -118.347801 6.000000 
-393.321106 545.498474 -118.321800 6.000000 
-393.446991 546.227478 -118.420601 6.000000 
-393.529999 546.324890 -118.449600 6.000000 
-393.555389 546.881226 -118.554604 6.000000 
-394.149689 547.234497 -118.749496 6.000000 
-393.764587 548.097778 -118.928703 6.000000 
-393.479004 548.718994 -119.114998 6.000000 
-393.937897 549.093628 -119.368401 6.000000 
-393.484497 549.093994 -119.283302 6.000000 
-392.853088 535.259521 -125.363899 6.000000 
-393.131714 535.528198 -124.662498 6.000000 
-392.847809 535.737122 -123.945602 6.000000 
-393.336914 536.788391 -122.311897 6.000000 
-393.089813 537.350098 -121.523499 6.000000 
-392.860291 537.867126 -120.923798 6.000000 
-392.887512 538.306213 -120.540100 6.000000 
-393.045807 538.602905 -120.341003 6.000000 
-392.996094 539.764099 -119.554604 6.000000 
-393.000702 539.887878 -119.486504 6.000000 
-392.961609 540.332520 -119.248802 6.000000 
-393.028687 540.956604 -118.985497 6.000000 
-392.800415 541.324585 -118.802696 6.000000 
-392.744293 541.670471 -118.676903 6.000000 
-393.162506 542.188782 -118.602997 6.000000 
-393.095886 543.047180 -118.405403 6.000000 
-392.937012 543.618896 -118.297501 6.000000 
-392.992706 543.786072 -118.289299 6.000000 
-393.081390 544.241699 -118.270302 6.000000 
-392.978912 544.600220 -118.241402 6.000000 
-393.184998 545.727722 -118.317703 6.000000 
-392.914886 545.731995 -118.275803 6.000000 
-393.044006 546.629211 -118.420303 6.000000 
-393.121094 546.808289 -118.466904 6.000000 
-393.002014 547.297607 -118.560600 6.000000 
-393.084991 547.872375 -118.737900 6.000000 
-393.100098 548.521423 -118.971901 6.000000 
-392.683990 548.905273 -119.073196 6.000000 
-392.167694 535.399414 -124.431999 6.000000 
-392.547211 535.522400 -124.308502 6.000000 
-392.362701 536.210999 -122.820702 6.000000 
-392.466187 536.808777 -121.982597 6.000000 
-392.349091 536.980591 -121.732697 6.000000 
-392.804810 537.681580 -121.088699 6.000000 
-392.296204 538.521606 -120.230797 6.000000 
-392.572906 538.875793 -120.027802 6.000000 
-392.361511 539.317078 -119.691002 6.000000 
-392.470490 539.628723 -119.524498 6.000000 
-392.645386 540.216309 -119.243301 6.000000 
-392.543213 540.877075 -118.927498 6.000000 
-392.203613 541.393921 -118.679901 6.000000 
-392.786987 542.010803 -118.583504 6.000000 
-392.340088 542.438904 -118.404800 6.000000 
-392.194305 542.786621 -118.311897 6.000000 
-392.592407 543.274597 -118.287498 6.000000 
-392.647095 543.747375 -118.238701 6.000000 
-392.945190 544.430298 -118.240196 6.000000 
-392.420990 544.828430 -118.159401 6.000000 
-392.731110 545.487610 -118.228500 6.000000 
-392.337402 545.789490 -118.202400 6.000000 
-392.465302 546.188782 -118.267197 6.000000 
-392.451599 546.842529 -118.379700 6.000000 
-392.456085 547.283203 -118.482101 6.000000 
-392.321014 548.179810 -118.738503 6.000000 
-392.535309 548.386902 -118.840500 6.000000 
-392.483307 549.047485 -119.111801 6.000000 
-391.987915 535.073486 -125.411797 6.000000 
-391.803009 535.547607 -123.889503 6.000000 
-392.193207 536.200378 -122.779198 6.000000 
-391.657196 536.591675 -122.045502 6.000000 
-391.913788 537.175293 -121.394600 6.000000 
-392.158112 538.142517 -120.508400 6.000000 
-392.061890 538.385376 -120.289597 6.000000 
-392.018311 538.999023 -119.833504 6.000000 
-391.971588 539.461182 -119.533203 6.000000 
-392.063293 539.723694 -119.397697 6.000000 
-391.787994 540.416687 -119.006302 6.000000 
-391.749207 540.747498 -118.857697 6.000000 
-391.788300 540.947327 -118.783096 6.000000 
-392.242493 541.706421 -118.584999 6.000000 
-392.144196 542.558899 -118.350899 6.000000 
-392.207611 543.002930 -118.275002 6.000000 
-391.929291 543.492798 -118.170097 6.000000 
-392.238098 543.474304 -118.210899 6.000000 
-391.893402 544.187622 -118.108101 6.000000 
-391.973785 544.939270 -118.106796 6.000000 
-391.931213 545.052979 -118.105301 6.000000 
-392.266205 546.251282 -118.251801 6.000000 
-392.232300 546.182495 -118.237801 6.000000 
-391.821594 546.916992 -118.325996 6.000000 
-392.133789 547.438416 -118.485497 6.000000 
-392.035004 547.964600 -118.633400 6.000000 
-391.780701 548.658630 -118.866798 6.000000 
-392.034088 549.004700 -119.041603 6.000000 
-391.489899 534.835815 -126.235603 6.000000 
-391.634003 535.059814 -125.220901 6.000000 
-391.336700 535.604675 -123.592903 6.000000 
-391.609314 536.226318 -122.559303 6.000000 
-391.628204 536.575989 -122.059402 6.000000 
-391.166290 537.235779 -121.175400 6.000000 
-391.407410 537.715576 -120.741798 6.000000 
-391.655396 538.046021 -120.491699 6.000000 
-391.548706 538.950073 -119.788101 6.000000 
-391.195587 539.372498 -119.471802 6.000000 
-391.658112 539.759583 -119.314697 6.000000 
-391.453796 540.393311 -118.972198 6.000000 
-391.787994 540.684082 -118.889397 6.000000 
-391.532196 541.438782 -118.575203 6.000000 
-391.198212 541.941528 -118.389503 6.000000 
-391.402802 542.630127 -118.248703 6.000000 
-391.496094 542.706970 -118.243202 6.000000 
-391.374695 543.349182 -118.128700 6.000000 
-391.617096 543.725281 -118.111298 6.000000 
-391.141205 544.451416 -118.027901 6.000000 
-391.308411 544.934692 -118.042503 6.000000 
-391.388092 545.261230 -118.062401 6.000000 
-391.273193 546.047607 -118.127296 6.000000 
-391.376801 546.513184 -118.207603 6.000000 
-391.620209 546.841309 -118.291397 6.000000 
-391.355194 547.349121 -118.390800 6.000000 
-391.623291 547.842285 -118.555397 6.000000 
-391.434509 548.274292 -118.688499 6.000000 
-391.595703 548.837402 -118.927101 6.000000 
-391.402100 549.360107 -119.158798 6.000000 
-391.042206 534.717224 -126.723701 6.000000 
-390.858612 535.014709 -124.972000 6.000000 
-390.718903 535.321777 -124.038300 6.000000 
-391.315002 535.948486 -122.932899 6.000000 
-390.981903 536.696472 -121.763000 6.000000 
-390.453705 537.236511 -121.065804 6.000000 
-391.193390 537.620117 -120.794800 6.000000 
-391.131195 538.369019 -120.144501 6.000000 
-390.642792 538.984680 -119.648804 6.000000 
-391.025208 539.258972 -119.519096 6.000000 
-390.891998 539.881226 -119.155098 6.000000 
-391.231689 540.528076 -118.886002 6.000000 
-391.005310 540.755188 -118.767097 6.000000 
-391.004211 541.507324 -118.497902 6.000000 
-390.849487 541.518188 -118.480797 6.000000 
-391.086304 542.437927 -118.258797 6.000000 
-390.499115 542.846802 -118.136497 6.000000 
-391.177185 543.147095 -118.138397 6.000000 
-390.966705 543.634888 -118.062302 6.000000 
-391.155792 544.204895 -118.036903 6.000000 
-391.197388 544.718079 -118.030296 6.000000 
-391.026611 545.577820 -118.058098 6.000000 
-390.978607 545.966370 -118.096703 6.000000 
-391.252106 546.405212 -118.179604 6.000000 
-390.878296 547.088318 -118.295097 6.000000 
-391.100311 547.412781 -118.390800 6.000000 
-390.891602 547.472778 -118.395599 6.000000 
-391.225189 548.794189 -118.882004 6.000000 
-391.189301 549.159424 -119.046097 6.000000 
-390.777588 534.828308 -125.695198 6.000000 
-390.675690 535.339905 -123.981499 6.000000 
-390.372894 535.770691 -123.023903 6.000000 
-390.239502 536.515015 -121.873398 6.000000 
-390.307312 536.784119 -121.548302 6.000000 
-390.521210 536.901917 -121.440300 6.000000 
-390.486603 537.629883 -120.684601 6.000000 
-390.221008 538.440491 -119.985397 6.000000 
-390.530304 539.028809 -119.609200 6.000000 
-390.557892 539.006409 -119.626198 6.000000 
-390.457306 539.816406 -119.148003 6.000000 
-390.391113 540.298096 -118.908997 6.000000 
-390.673615 540.831421 -118.706703 6.000000 
-390.314697 541.257996 -118.525803 6.000000 
-390.775787 541.965027 -118.346298 6.000000 
-390.357391 542.182312 -118.263802 6.000000 
-390.720886 542.653809 -118.185799 6.000000 
-390.669800 543.280029 -118.082001 6.000000 
-390.540497 543.822998 -118.018600 6.000000 
-390.720612 544.489624 -117.998802 6.000000 
-390.731110 544.965393 -118.003502 6.000000 
-390.283386 545.217224 -117.994003 6.000000 
-390.306610 545.773071 -118.041603 6.000000 
-390.423706 546.382874 -118.130997 6.000000 
-390.702698 546.910889 -118.245598 6.000000 
-390.439392 547.765625 -118.463997 6.000000 
-390.367798 548.040588 -118.552597 6.000000 
-390.347198 548.365112 -118.670097 6.000000 
-390.421600 548.937988 -118.911102 6.000000 
-390.031189 534.700378 -125.961601 6.000000 
-389.845398 535.350098 -123.762604 6.000000 
-389.943390 535.607788 -123.247200 6.000000 
-389.924408 536.352722 -122.048698 6.000000 
-390.018402 536.816223 -121.475098 6.000000 
-389.729706 537.405518 -120.821701 6.000000 
-390.059204 537.918884 -120.384102 6.000000 
-390.006714 538.405396 -119.993599 6.000000 
-389.766205 538.774902 -119.715599 6.000000 
-389.947693 539.639893 -119.204803 6.000000 
-389.888306 539.802185 -119.115997 6.000000 
-389.897491 540.179077 -118.932198 6.000000 
-390.227905 540.676208 -118.735703 6.000000 
-390.007599 541.122498 -118.555199 6.000000 
-389.803192 541.768311 -118.344398 6.000000 
-389.936798 542.338074 -118.208298 6.000000 
-389.829010 542.772888 -118.119400 6.000000 
-389.854492 542.800720 -118.115402 6.000000 
-389.992615 544.153381 -117.976196 6.000000 
-390.098907 544.108521 -117.981499 6.000000 
-389.838287 544.618896 -117.963501 6.000000 
-390.187988 545.561829 -118.016502 6.000000 
-389.861603 545.870483 -118.042198 6.000000 
-390.066498 546.262024 -118.100998 6.000000 
-390.013000 546.828491 -118.206497 6.000000 
-389.730988 547.224426 -118.298203 6.000000 
-390.157410 547.797974 -118.467598 6.000000 
-390.013489 548.500427 -118.718300 6.000000 
-390.243805 548.844788 -118.865898 6.000000 
-389.494507 534.781128 -125.363998 6.000000 
-389.532806 535.101807 -124.315102 6.000000 
-389.704407 535.810486 -122.846397 6.000000 
-389.493011 536.331177 -122.032799 6.000000 
-389.454407 536.737976 -121.514297 6.000000 
-389.371002 537.453491 -120.751701 6.000000 
-389.429291 537.861694 -120.388000 6.000000 
-389.549713 538.333496 -120.017303 6.000000 
-389.439514 538.559082 -119.847397 6.000000 
-389.345886 539.320496 -119.355301 6.000000 
-389.485809 539.815674 -119.090897 6.000000 
-389.668304 540.664978 -118.712097 6.000000 
-389.474213 540.987488 -118.583099 6.000000 
-389.397186 541.224304 -118.499001 6.000000 
-389.440613 541.823608 -118.319504 6.000000 
-389.136688 542.084473 -118.249802 6.000000 
-389.729706 542.717896 -118.126404 6.000000 
-389.401794 543.414001 -118.020798 6.000000 
-389.803314 543.483521 -118.019997 6.000000 
-389.366211 544.556885 -117.958702 6.000000 
-389.513397 545.233887 -117.980301 6.000000 
-389.661591 545.517700 -118.002701 6.000000 
-389.644806 546.193970 -118.085197 6.000000 
-389.557495 546.375488 -118.114998 6.000000 
-389.294891 546.872498 -118.216400 6.000000 
-389.293610 547.862610 -118.490997 6.000000 
-389.404694 547.818909 -118.474403 6.000000 
-389.535706 548.404297 -118.682098 6.000000 
-389.604492 548.987488 -118.930603 6.000000 
-389.536804 549.369019 -119.118896 6.000000 
-389.022491 534.816406 -125.125298 6.000000 
-388.923706 535.278198 -123.802299 6.000000 
-389.225494 535.894104 -122.657402 6.000000 
-388.962006 536.237976 -122.124199 6.000000 
-388.954407 536.793213 -121.421600 6.000000 
-388.844513 537.201172 -120.977600 6.000000 
-388.956787 537.600098 -120.598297 6.000000 
-388.667786 537.932190 -120.305603 6.000000 
-389.144012 538.510193 -119.871101 6.000000 
-388.972198 539.422974 -119.288399 6.000000 
-388.970703 539.581970 -119.200897 6.000000 
-389.139587 540.171875 -118.909698 6.000000 
-388.541107 540.973206 -118.584000 6.000000 
-388.663696 541.406006 -118.437897 6.000000 
-388.918915 541.728882 -118.341301 6.000000 
-388.664490 542.601318 -118.144096 6.000000 
-389.199310 542.819214 -118.101303 6.000000 
-389.206390 543.432312 -118.018204 6.000000 
-389.039703 543.648926 -117.998398 6.000000 
-388.755005 544.351501 -117.968002 6.000000 
-388.763000 544.706299 -117.968002 6.000000 
-388.606598 545.545471 -118.021500 6.000000 
-388.950897 545.850220 -118.044701 6.000000 
-388.751709 546.571228 -118.167397 6.000000 
-388.991089 546.837891 -118.215500 6.000000 
-388.867889 547.131470 -118.289803 6.000000 
-388.717285 547.765015 -118.479301 6.000000 
-388.677795 548.634583 -118.807198 6.000000 
-388.960510 549.109192 -119.008797 6.000000 
-388.987488 549.331116 -119.118599 6.000000 
-388.506195 534.785828 -125.182198 6.000000 
-388.716888 535.271606 -123.802299 6.000000 
-388.417603 536.005981 -122.444603 6.000000 
-388.573792 536.208984 -122.150803 6.000000 
-388.513794 536.725525 -121.489197 6.000000 
-388.475586 537.239380 -120.933701 6.000000 
-388.541504 537.667908 -120.530899 6.000000 
-388.855713 538.301514 -120.017097 6.000000 
-388.439301 538.726379 -119.714699 6.000000 
-388.247406 539.247925 -119.391602 6.000000 
-388.403503 539.614502 -119.184799 6.000000 
-388.437897 540.425903 -118.798897 6.000000 
-388.278107 540.982727 -118.586601 6.000000 
-388.211304 541.040222 -118.568398 6.000000 
-388.417389 542.053284 -118.265800 6.000000 
-388.317200 542.105408 -118.256599 6.000000 
-388.454712 542.890381 -118.100304 6.000000 
-388.387390 543.149109 -118.065804 6.000000 
-388.492493 543.722778 -118.003998 6.000000 
-388.358093 544.521790 -117.980301 6.000000 
-388.454102 544.661377 -117.977600 6.000000 
-388.408508 545.615906 -118.037201 6.000000 
-388.414307 545.616699 -118.037003 6.000000 
-388.251495 546.600525 -118.197998 6.000000 
-388.512512 547.101990 -118.298103 6.000000 
-388.382690 547.581177 -118.439697 6.000000 
-388.536987 548.074524 -118.594902 6.000000 
-388.593506 548.551697 -118.777100 6.000000 
-388.582001 549.276428 -119.113998 6.000000 
-388.191101 534.742493 -125.340103 6.000000 
-388.060699 535.226379 -123.890297 6.000000 
-387.934387 535.709229 -122.929199 6.000000 
-388.089600 536.045288 -122.385803 6.000000 
-387.954102 536.818176 -121.387703 6.000000 
-388.140106 537.385315 -120.793900 6.000000 
-388.107697 537.904419 -120.332703 6.000000 
-387.971100 538.323730 -120.007896 6.000000 
-387.919586 538.635071 -119.788200 6.000000 
-387.896912 539.443176 -119.291801 6.000000 
-387.667297 539.617371 -119.208603 6.000000 
-387.709900 540.092590 -118.971802 6.000000 
-387.890411 540.883118 -118.637001 6.000000 
-388.060089 541.505371 -118.424400 6.000000 
-387.731995 541.680603 -118.390503 6.000000 
-387.957794 542.338196 -118.220001 6.000000 
-387.943787 543.092712 -118.092697 6.000000 
-387.540100 543.458984 -118.076698 6.000000 
-388.026611 543.821716 -118.017403 6.000000 
-388.218689 544.139771 -117.992500 6.000000 
-387.981201 544.937927 -118.009598 6.000000 
-388.019989 545.595886 -118.056602 6.000000 
-388.044586 545.857422 -118.086197 6.000000 
-388.183594 546.507324 -118.183502 6.000000 
-387.778198 547.257812 -118.390404 6.000000 
-387.867310 547.226685 -118.374397 6.000000 
-387.846100 548.005371 -118.621498 6.000000 
-387.868408 548.249329 -118.710503 6.000000 
-388.195007 549.182922 -119.096199 6.000000 
-388.070099 549.414307 -119.227898 6.000000 
-387.611298 534.662170 -125.730904 6.000000 
-387.357910 535.213318 -123.958099 6.000000 
-387.210510 535.625793 -123.120796 6.000000 
-387.675110 535.964172 -122.522003 6.000000 
-387.498505 536.921082 -121.292900 6.000000 
-387.446198 537.020081 -121.189201 6.000000 
-387.541412 537.745728 -120.488998 6.000000 
-387.124115 538.248413 -120.111504 6.000000 
-387.493195 539.039612 -119.546997 6.000000 
-387.438690 539.132690 -119.494003 6.000000 
-387.701691 539.903992 -119.061699 6.000000 
-387.171906 540.441589 -118.853897 6.000000 
-387.379303 540.583801 -118.780701 6.000000 
-387.290985 541.325317 -118.523903 6.000000 
-387.441193 541.955505 -118.337601 6.000000 
-387.658112 542.082886 -118.292801 6.000000 
-387.722107 542.790405 -118.149902 6.000000 
-387.133392 543.431213 -118.112701 6.000000 
-387.511993 543.718994 -118.057404 6.000000 
-387.578400 544.405029 -118.027000 6.000000 
-387.520599 544.751526 -118.035698 6.000000 
-387.578796 545.350220 -118.065201 6.000000 
-387.283508 545.850098 -118.147102 6.000000 
-387.582092 546.308105 -118.191597 6.000000 
-387.596100 547.221008 -118.396797 6.000000 
-387.636200 547.404419 -118.445000 6.000000 
-387.341309 547.814087 -118.605499 6.000000 
-387.445312 548.476196 -118.845596 6.000000 
-387.652496 549.157898 -119.137398 6.000000 
-386.803894 534.828979 -125.158401 6.000000 
-386.753387 535.515991 -123.382401 6.000000 
-387.038513 535.866821 -122.724197 6.000000 
-387.192291 536.441528 -121.882797 6.000000 
-386.705292 536.872620 -121.414299 6.000000 
-387.021790 537.098389 -121.139099 6.000000 
-386.914703 537.932007 -120.378502 6.000000 
-387.071594 538.237183 -120.124199 6.000000 
-386.618103 538.933228 -119.685600 6.000000 
-387.104309 539.359924 -119.386101 6.000000 
-387.131500 539.803711 -119.148399 6.000000 
-387.157288 540.054810 -119.025398 6.000000 
-386.745300 540.855530 -118.730698 6.000000 
-386.745605 541.030823 -118.668503 6.000000 
-386.670410 541.703003 -118.470299 6.000000 
-386.902496 542.085815 -118.351601 6.000000 
-387.098694 542.794922 -118.196404 6.000000 
-386.824493 543.455200 -118.140602 6.000000 
-387.118591 544.068420 -118.072701 6.000000 
-386.987213 544.203308 -118.081902 6.000000 
-386.877594 545.058411 -118.111198 6.000000 
-386.668701 545.009888 -118.132401 6.000000 
-387.026306 545.655273 -118.148804 6.000000 
-386.974091 546.918884 -118.385101 6.000000 
-387.144714 546.808411 -118.338699 6.000000 
-387.101105 547.470215 -118.522102 6.000000 
-386.887299 548.000305 -118.727997 6.000000 
-387.022614 548.194824 -118.783699 6.000000 
-386.944000 548.994324 -119.147202 6.000000 
-386.902313 549.392883 -119.361702 6.000000 
-386.342987 535.179993 -124.200401 6.000000 
-386.488312 535.685913 -123.105202 6.000000 
-386.722687 536.254211 -122.180397 6.000000 
-386.641602 536.707581 -121.611099 6.000000 
-386.168488 537.185730 -121.149101 6.000000 
-386.425415 537.877075 -120.476097 6.000000 
-386.588409 538.448975 -120.014503 6.000000 
-386.094086 538.983215 -119.717201 6.000000 
-386.249786 539.112793 -119.617599 6.000000 
-386.140808 539.846497 -119.230698 6.000000 
-386.664612 540.104980 -119.046898 6.000000 
-386.105408 541.001099 -118.752800 6.000000 
-386.409790 541.272827 -118.625000 6.000000 
-386.397888 541.905884 -118.448502 6.000000 
-386.106201 542.485901 -118.360100 6.000000 
-386.719513 542.920288 -118.214798 6.000000 
-386.432312 543.302429 -118.200104 6.000000 
-386.270996 543.668518 -118.188698 6.000000 
-386.535492 544.256897 -118.131401 6.000000 
-385.936401 544.973328 -118.230400 6.000000 
-386.341797 545.374695 -118.202698 6.000000 
-386.442902 546.088989 -118.282501 6.000000 
-386.245911 546.584290 -118.406403 6.000000 
-386.307587 546.858521 -118.460899 6.000000 
-386.321808 547.130127 -118.529800 6.000000 
-386.301208 547.950317 -118.797501 6.000000 
-386.403809 548.559875 -119.028297 6.000000 
-386.597107 549.031494 -119.219803 6.000000 
-385.768890 534.753906 -125.889801 6.000000 
-385.998993 535.156799 -124.347900 6.000000 
-385.749603 535.404602 -123.819504 6.000000 
-386.086792 536.234375 -122.302002 6.000000 
-385.845215 536.790100 -121.632103 6.000000 
-385.992310 537.026917 -121.342499 6.000000 
-385.851990 537.832703 -120.593300 6.000000 
-385.774414 538.600830 -120.014702 6.000000 
-385.837402 538.784485 -119.880997 6.000000 
-385.713013 539.161194 -119.663597 6.000000 
-385.965515 539.203430 -119.601402 6.000000 
-385.980499 540.389282 -119.004097 6.000000 
-385.955505 540.785706 -118.850403 6.000000 
-385.360687 540.970825 -118.874496 6.000000 
-386.390503 541.927673 -118.444000 6.000000 
-385.805389 542.203308 -118.458801 6.000000 
-386.170288 542.833313 -118.293198 6.000000 
-385.689514 543.351624 -118.298302 6.000000 
-385.835510 543.886597 -118.237801 6.000000 
-386.097809 544.582214 -118.190598 6.000000 
-385.631012 544.870178 -118.273598 6.000000 
-386.093994 545.448120 -118.245697 6.000000 
-386.090790 545.852478 -118.296799 6.000000 
-385.721313 546.309021 -118.434898 6.000000 
-385.972504 547.081726 -118.572998 6.000000 
-386.074310 547.284790 -118.613800 6.000000 
-386.045013 547.889099 -118.818604 6.000000 
-385.482208 548.457092 -119.158600 6.000000 
-385.960785 549.058228 -119.349297 6.000000 
-385.761688 549.220520 -119.477203 6.000000 
-385.466797 534.674927 -126.761101 6.000000 
-385.410492 535.200012 -124.423798 6.000000 
-385.174896 535.929871 -122.973602 6.000000 
-385.523285 536.371887 -122.221397 6.000000 
-385.278290 536.377686 -122.269203 6.000000 
-385.472687 537.136780 -121.317902 6.000000 
-384.943298 537.875916 -120.725403 6.000000 
-385.480896 538.397400 -120.207901 6.000000 
-385.576996 538.840698 -119.885101 6.000000 
-385.247711 539.371277 -119.619202 6.000000 
-385.369385 539.488281 -119.532700 6.000000 
-385.447815 540.139587 -119.193802 6.000000 
-385.628906 540.954895 -118.836899 6.000000 
-385.216309 541.012817 -118.884697 6.000000 
-385.596985 541.802307 -118.584602 6.000000 
-385.770691 542.412903 -118.421303 6.000000 
-385.210999 542.537903 -118.489403 6.000000 
-385.345093 543.280273 -118.362099 6.000000 
-385.469086 543.939514 -118.294403 6.000000 
-385.405701 544.155396 -118.299400 6.000000 
-385.322388 544.811829 -118.324402 6.000000 
-385.163696 545.540100 -118.416000 6.000000 
-385.470215 546.349487 -118.488297 6.000000 
-385.759003 546.055115 -118.382202 6.000000 
-385.338287 546.897217 -118.640701 6.000000 
-385.417999 547.563904 -118.823700 6.000000 
-385.686401 547.934570 -118.902199 6.000000 
-385.416412 548.337708 -119.120399 6.000000 
-385.470215 548.818176 -119.331001 6.000000 
-384.916901 534.835693 -126.066101 6.000000 
-385.233185 535.362610 -124.076897 6.000000 
-385.021301 535.681580 -123.466904 6.000000 
-384.906494 536.157288 -122.685699 6.000000 
-384.810303 536.723206 -121.937500 6.000000 
-384.914001 536.975403 -121.614899 6.000000 
-384.978394 537.695801 -120.875900 6.000000 
-384.870209 538.138306 -120.524498 6.000000 
-384.955902 538.545593 -120.199898 6.000000 
-384.753296 539.412170 -119.691498 6.000000 
-384.886902 539.830078 -119.442703 6.000000 
-384.781586 540.071228 -119.347099 6.000000 
-384.862610 540.900574 -118.989502 6.000000 
-384.988098 541.628784 -118.735001 6.000000 
-384.703094 541.647583 -118.785103 6.000000 
-384.997314 542.761719 -118.491203 6.000000 
-385.224487 542.820190 -118.441002 6.000000 
-384.967194 543.275024 -118.431198 6.000000 
-384.861603 543.825500 -118.410896 6.000000 
-385.049286 544.361328 -118.363297 6.000000 
-384.965302 544.953674 -118.400497 6.000000 
-384.995087 545.113281 -118.406097 6.000000 
-384.859314 545.979492 -118.542000 6.000000 
-384.888885 546.023987 -118.543297 6.000000 
-384.884399 546.781799 -118.706398 6.000000 
-384.623901 547.431702 -118.957497 6.000000 
-384.908112 547.741272 -118.997398 6.000000 
-384.683411 548.476196 -119.356796 6.000000 
-385.151886 548.960999 -119.477798 6.000000 
-384.303406 534.832581 -127.090401 6.000000 
-384.250305 535.218201 -124.937103 6.000000 
-384.476990 535.729492 -123.568703 6.000000 
-384.322296 536.325317 -122.615898 6.000000 
-384.734589 536.671509 -122.021896 6.000000 
-384.252014 537.365112 -121.371498 6.000000 
-384.228394 538.097412 -120.709702 6.000000 
-384.641602 538.601990 -120.226997 6.000000 
-384.202301 538.883972 -120.137901 6.000000 
-384.293915 539.157593 -119.942497 6.000000 
-384.518707 539.775330 -119.546501 6.000000 
-384.599487 540.385925 -119.244202 6.000000 
-384.595093 540.553528 -119.175697 6.000000 
-384.293304 541.216980 -119.000198 6.000000 
-384.161713 541.908875 -118.834099 6.000000 
-384.337402 542.430420 -118.682297 6.000000 
-384.597412 542.816589 -118.561996 6.000000 
-384.787292 543.095276 -118.486198 6.000000 
-384.469299 543.743591 -118.496498 6.000000 
-384.444000 544.505371 -118.490799 6.000000 
-384.551208 545.060730 -118.495300 6.000000 
-384.475189 545.584290 -118.567596 6.000000 
-384.391296 545.563782 -118.584297 6.000000 
-384.355804 546.524597 -118.767197 6.000000 
-384.206604 546.977295 -118.922401 6.000000 
-384.432007 547.532104 -119.039703 6.000000 
-384.426697 547.853394 -119.159103 6.000000 
-384.276398 548.613403 -119.533798 6.000000 
-384.152191 549.060974 -119.806900 6.000000 
-383.993805 535.015930 -125.974899 6.000000 
-383.824707 535.617310 -124.105904 6.000000 
-383.785614 536.127197 -123.128601 6.000000 
-384.013611 536.790527 -122.089401 6.000000 
-384.171692 537.224487 -121.540802 6.000000 
-383.840607 537.848389 -121.029900 6.000000 
-384.105804 538.386597 -120.513901 6.000000 
-383.709503 539.125183 -120.111801 6.000000 
-383.689392 539.221008 -120.058403 6.000000 
-383.875488 539.551880 -119.817596 6.000000 
-383.773285 540.221985 -119.508698 6.000000 
-383.973907 540.799683 -119.220001 6.000000 
-383.918304 541.434204 -119.020203 6.000000 
-383.885895 541.901184 -118.901299 6.000000 
-384.046387 542.516602 -118.732803 6.000000 
-383.750305 543.059692 -118.724197 6.000000 
-383.702606 543.334900 -118.707100 6.000000 
-383.540588 543.713806 -118.722298 6.000000 
-383.643799 544.366394 -118.682800 6.000000 
-383.872406 544.655518 -118.631897 6.000000 
-383.717804 545.118591 -118.702904 6.000000 
-383.845795 545.848511 -118.762802 6.000000 
-383.684113 546.285706 -118.890297 6.000000 
-383.948792 546.780090 -118.936501 6.000000 
-383.766602 547.496094 -119.210297 6.000000 
-383.620514 548.197388 -119.536697 6.000000 
-383.801300 548.260681 -119.508598 6.000000 
-384.165314 548.833618 -119.678902 6.000000 
-383.404785 535.718872 -124.108002 6.000000 
-383.451111 536.631409 -122.502296 6.000000 
-383.287201 536.595215 -122.620499 6.000000 
-383.396698 537.190002 -121.831703 6.000000 
-383.360199 537.575806 -121.439003 6.000000 
-383.491913 538.458130 -120.633102 6.000000 
-383.402710 538.682983 -120.495102 6.000000 
-383.295807 539.424927 -120.050003 6.000000 
-383.525391 539.785522 -119.786499 6.000000 
-383.427612 539.966309 -119.722504 6.000000 
-383.137512 540.979980 -119.376602 6.000000 
-383.086609 541.762695 -119.149597 6.000000 
-383.365295 541.888184 -119.039200 6.000000 
-383.437897 542.430420 -118.901901 6.000000 
-383.603088 542.794189 -118.797501 6.000000 
-383.124207 543.572693 -118.846001 6.000000 
-383.656006 543.928711 -118.682999 6.000000 
-383.231812 544.571716 -118.801903 6.000000 
-383.242401 544.921204 -118.818604 6.000000 
-383.366394 545.246582 -118.812599 6.000000 
-383.518311 546.318176 -118.944702 6.000000 
-383.509705 546.531189 -118.996902 6.000000 
-383.460114 546.942505 -119.122498 6.000000 
-383.276306 547.281921 -119.286797 6.000000 
-383.286499 547.919189 -119.524696 6.000000 
-383.390900 548.582214 -119.797699 6.000000 
-383.623291 548.846191 -119.858101 6.000000 
-382.825714 535.725403 -124.473099 6.000000 
-382.773102 536.277222 -123.363297 6.000000 
-382.653198 537.127625 -122.203697 6.000000 
-382.784790 537.073303 -122.211304 6.000000 
-382.661896 537.802673 -121.477600 6.000000 
-382.710205 538.299011 -121.020500 6.000000 
-382.610291 538.464111 -120.925400 6.000000 
-382.950500 539.438110 -120.148903 6.000000 
-383.141693 539.970093 -119.803596 6.000000 
-382.666809 540.332214 -119.781403 6.000000 
-382.677094 540.987488 -119.514000 6.000000 
-383.021393 541.301575 -119.302200 6.000000 
-382.722687 542.003906 -119.198799 6.000000 
-382.494385 542.118713 -119.245102 6.000000 
-383.111786 542.567993 -118.967903 6.000000 
-382.998108 543.435913 -118.892601 6.000000 
-382.688812 543.790894 -118.965897 6.000000 
-382.893097 544.342590 -118.896202 6.000000 
-382.833588 544.681702 -118.926399 6.000000 
-382.852203 545.165405 -118.958603 6.000000 
-382.829193 545.857727 -119.064003 6.000000 
-382.828888 546.298096 -119.153999 6.000000 
-382.787903 546.740112 -119.280602 6.000000 
-382.654694 547.269104 -119.493896 6.000000 
-382.542389 547.961304 -119.810303 6.000000 
-382.557404 548.664124 -120.154404 6.000000 
-382.837891 548.763489 -120.097702 6.000000 
-382.331604 535.759583 -124.783203 6.000000 
-382.438690 535.956726 -124.202698 6.000000 
-382.098389 536.743774 -122.993896 6.000000 
-382.162903 537.004395 -122.594803 6.000000 
-382.018005 537.594727 -121.968002 6.000000 
-382.405396 538.303101 -121.133797 6.000000 
-382.395599 539.000000 -120.615303 6.000000 
-382.446991 539.428894 -120.324699 6.000000 
-382.484009 539.749329 -120.130203 6.000000 
-382.348999 540.567322 -119.786102 6.000000 
-382.583405 540.767700 -119.626404 6.000000 
-382.234314 541.034729 -119.644600 6.000000 
-382.360901 541.700073 -119.392601 6.000000 
-382.515289 542.494995 -119.162598 6.000000 
-382.375214 543.209900 -119.108101 6.000000 
-382.514587 543.338318 -119.050301 6.000000 
-382.408997 543.901672 -119.052803 6.000000 
-382.247803 544.153687 -119.103996 6.000000 
-382.384186 544.952881 -119.092102 6.000000 
-382.485809 545.302612 -119.094002 6.000000 
-382.229614 545.687927 -119.239601 6.000000 
-382.465088 546.543213 -119.339798 6.000000 
-382.583191 546.739502 -119.351501 6.000000 
-382.494812 547.188599 -119.524399 6.000000 
-382.420288 547.912903 -119.836304 6.000000 
-382.567596 548.369324 -119.994301 6.000000 
-382.255005 549.048889 -120.511902 6.000000 
-381.885803 535.594299 -125.899597 6.000000 
-381.514709 536.515076 -123.749802 6.000000 
-381.916687 537.071777 -122.637703 6.000000 
-381.607208 537.279480 -122.544197 6.000000 
-381.872314 538.076477 -121.558899 6.000000 
-381.909210 538.310791 -121.334999 6.000000 
-382.016113 538.720703 -120.962402 6.000000 
-381.734802 539.253723 -120.708801 6.000000 
-382.129303 539.604004 -120.339203 6.000000 
-381.809692 540.359070 -120.074097 6.000000 
-381.996185 540.668274 -119.870003 6.000000 
-381.946289 541.490601 -119.597198 6.000000 
-381.678589 541.878418 -119.588997 6.000000 
-381.902893 542.343018 -119.400902 6.000000 
-382.255310 542.750488 -119.206299 6.000000 
-381.748108 543.566101 -119.300301 6.000000 
-381.837311 543.795288 -119.256302 6.000000 
-381.790802 544.379272 -119.271599 6.000000 
-382.357208 545.082275 -119.113403 6.000000 
-381.862915 545.088806 -119.292397 6.000000 
-381.903290 546.119629 -119.446297 6.000000 
-381.964691 546.418518 -119.494400 6.000000 
-381.665985 546.927307 -119.764603 6.000000 
-381.548798 547.683228 -120.104301 6.000000 
-382.058807 548.044128 -120.044296 6.000000 
-382.064301 548.413513 -120.227303 6.000000 
-381.827606 549.048584 -120.712196 6.000000 
-382.110291 549.283203 -120.733299 6.000000 
-381.509186 535.599182 -126.744797 6.000000 
-381.480988 536.104004 -124.661598 6.000000 
-381.505310 536.960876 -123.032501 6.000000 
-381.376587 537.335022 -122.608299 6.000000 
-381.485504 537.728882 -122.093399 6.000000 
-381.369995 538.499084 -121.426804 6.000000 
-381.557007 538.978882 -120.971397 6.000000 
-381.580414 539.171326 -120.828697 6.000000 
-381.502502 539.827209 -120.464600 6.000000 
-381.449188 540.453491 -120.175301 6.000000 
-381.497192 540.771973 -120.020500 6.000000 
-381.347198 541.248718 -119.905403 6.000000 
-381.251587 541.898315 -119.752502 6.000000 
-381.210907 542.079285 -119.725197 6.000000 
-381.208405 542.890930 -119.577202 6.000000 
-381.312988 543.262512 -119.492302 6.000000 
-381.349396 543.855530 -119.442299 6.000000 
-381.270508 544.310913 -119.474098 6.000000 
-381.532593 544.935120 -119.404999 6.000000 
-381.159210 545.493774 -119.630898 6.000000 
-381.251404 545.832581 -119.652496 6.000000 
-381.447693 546.271973 -119.667603 6.000000 
-381.191406 546.861511 -119.952103 6.000000 
-381.254791 547.286316 -120.075798 6.000000 
-381.573090 547.661987 -120.084099 6.000000 
-381.243103 548.254822 -120.528900 6.000000 
-381.063293 548.986511 -121.072304 6.000000 
-381.252899 549.224915 -121.134804 6.000000 
-380.790405 536.244080 -125.051903 6.000000 
-380.898102 536.636597 -124.021500 6.000000 
-380.746887 537.307800 -123.052002 6.000000 
-380.935791 537.334412 -122.886200 6.000000 
-380.771393 538.226685 -121.986900 6.000000 
-380.657288 538.706482 -121.625999 6.000000 
-380.683105 539.500488 -121.037102 6.000000 
-380.804993 539.536682 -120.953201 6.000000 
-380.789703 539.997681 -120.693100 6.000000 
-380.507202 540.816406 -120.441399 6.000000 
-380.695404 541.136108 -120.228401 6.000000 
-380.848999 542.130981 -119.867302 6.000000 
-380.859406 542.150085 -119.858398 6.000000 
-380.667786 542.796997 -119.822998 6.000000 
-380.756287 543.652527 -119.700699 6.000000 
-380.702393 543.664673 -119.724197 6.000000 
-380.840515 544.462891 -119.663101 6.000000 
-380.965912 544.752197 -119.625801 6.000000 
-380.403687 545.378418 -119.960899 6.000000 
-380.858887 545.972595 -119.858101 6.000000 
-380.853912 546.538513 -120.008400 6.000000 
-381.060089 546.870728 -120.016098 6.000000 
-380.729309 547.174316 -120.288101 6.000000 
-380.749207 547.835388 -120.568703 6.000000 
-381.046600 548.109314 -120.551804 6.000000 
-380.680298 549.087402 -121.371002 6.000000 
-380.910400 549.252991 -121.354897 6.000000 
-380.140015 536.207397 -126.393097 6.000000 
-380.561890 536.934875 -123.768700 6.000000 
-380.306000 537.278381 -123.430496 6.000000 
-380.420898 537.831482 -122.620003 6.000000 
-380.314514 538.191711 -122.301300 6.000000 
-380.473694 538.806091 -121.648102 6.000000 
-380.136902 538.958008 -121.724297 6.000000 
-380.352692 539.861389 -120.989403 6.000000 
-380.628204 540.496216 -120.522301 6.000000 
-380.236694 540.710022 -120.621498 6.000000 
-380.377014 541.679321 -120.201797 6.000000 
-380.464905 542.034729 -120.064903 6.000000 
-380.458710 541.906799 -120.099998 6.000000 
-380.486908 542.735596 -119.915199 6.000000 
-380.231812 543.518799 -119.952202 6.000000 
-380.001709 544.094910 -120.052399 6.000000 
-380.114502 544.645081 -120.018501 6.000000 
-379.872986 545.361023 -120.231499 6.000000 
-380.264313 545.243896 -120.009499 6.000000 
-380.489502 546.053772 -120.054901 6.000000 
-380.482300 546.400208 -120.150803 6.000000 
-380.065002 546.856812 -120.523300 6.000000 
-380.228394 547.587097 -120.737396 6.000000 
-380.140198 547.938721 -120.968002 6.000000 
-380.592102 548.760193 -121.193298 6.000000 
-380.292511 549.089172 -121.622597 6.000000 
-379.556000 536.466492 -126.634399 6.000000 
-379.769592 537.195190 -124.059402 6.000000 
-379.822296 537.664795 -123.279900 6.000000 
-379.983185 538.260498 -122.453697 6.000000 
-379.849701 538.849670 -121.993202 6.000000 
-379.624908 539.501770 -121.638199 6.000000 
-379.612793 539.571411 -121.598297 6.000000 
-379.798798 540.365112 -121.020401 6.000000 
-380.052704 540.946716 -120.617996 6.000000 
-379.981598 541.427002 -120.478996 6.000000 
-379.418396 541.725403 -120.694199 6.000000 
-379.448700 542.239807 -120.542198 6.000000 
-379.917511 542.854370 -120.176697 6.000000 
-379.742798 543.206177 -120.225899 6.000000 
-379.798798 543.924988 -120.157700 6.000000 
-379.675690 544.363281 -120.231697 6.000000 
-379.808990 545.065674 -120.221802 6.000000 
-379.762299 545.214905 -120.268402 6.000000 
-379.906403 546.050598 -120.360100 6.000000 
-379.803101 546.542419 -120.563103 6.000000 
-379.570190 546.770081 -120.781998 6.000000 
-379.659912 547.531616 -121.055801 6.000000 
-379.904510 548.036011 -121.168999 6.000000 
-379.632294 548.695679 -121.787697 6.000000 
-379.949402 549.065918 -121.843399 6.000000 
-379.484894 536.506592 -126.616501 6.000000 
-379.357086 536.891479 -125.266197 6.000000 
-379.281708 537.282288 -124.445801 6.000000 
-379.260010 537.396606 -124.253098 6.000000 
-378.891998 538.076782 -123.579201 6.000000 
-379.157806 538.727173 -122.601196 6.000000 
-379.329315 539.268982 -122.005302 6.000000 
-379.457703 539.583679 -121.689598 6.000000 
-379.205414 540.141785 -121.503601 6.000000 
-379.324707 540.946228 -121.029297 6.000000 
-379.052704 541.428101 -121.010101 6.000000 
-378.977203 541.764404 -120.947502 6.000000 
-378.975494 542.282227 -120.812302 6.000000 
-379.270813 543.003113 -120.510201 6.000000 
-379.578491 543.153503 -120.319801 6.000000 
-379.369598 544.001221 -120.393303 6.000000 
-379.508514 544.449890 -120.328499 6.000000 
-379.549286 544.841003 -120.338097 6.000000 
-379.043793 545.313293 -120.706001 6.000000 
-379.388000 545.928406 -120.628304 6.000000 
-379.410400 546.114075 -120.664803 6.000000 
-379.458588 546.961914 -120.926697 6.000000 
-379.533386 547.620728 -121.183502 6.000000 
-379.144196 548.172729 -121.785500 6.000000 
-379.454498 548.555603 -121.816803 6.000000 
-379.378510 548.763916 -122.033401 6.000000 
-379.539490 549.397278 -122.457497 6.000000 
-378.904297 537.273010 -124.988899 6.000000 
-378.931305 537.544189 -124.377701 6.000000 
-378.794189 538.191223 -123.525200 6.000000 
-378.564911 538.486084 -123.385597 6.000000 
-378.603790 539.014893 -122.787399 6.000000 
-378.735413 539.535828 -122.238701 6.000000 
-378.591614 540.539429 -121.707001 6.000000 
-378.769409 540.791626 -121.455803 6.000000 
-378.764191 541.383423 -121.211998 6.000000 
-378.687408 541.726074 -121.146301 6.000000 
-378.747894 542.255615 -120.962196 6.000000 
-378.772705 543.057129 -120.805901 6.000000 
-378.673004 543.419495 -120.835602 6.000000 
-378.922913 544.034790 -120.659500 6.000000 
-378.715088 544.558411 -120.816299 6.000000 
-378.768494 544.598206 -120.785004 6.000000 
-378.894501 545.439819 -120.825302 6.000000 
-379.111206 545.956787 -120.807701 6.000000 
-378.589691 546.582214 -121.369698 6.000000 
-378.534393 546.921692 -121.554604 6.000000 
-378.761688 547.486023 -121.662804 6.000000 
-378.944305 547.955383 -121.798798 6.000000 
-378.746399 548.514282 -122.363197 6.000000 
-378.825012 549.079895 -122.794998 6.000000 
-378.488098 537.063293 -126.945396 6.000000 
-378.241699 537.793823 -124.861298 6.000000 
-378.382385 538.353271 -123.746696 6.000000 
-378.478302 538.796082 -123.120598 6.000000 
-378.118286 539.470398 -122.814796 6.000000 
-378.247986 539.836426 -122.411697 6.000000 
-378.336792 540.365173 -121.995399 6.000000 
-378.507904 540.817383 -121.627701 6.000000 
-378.200409 541.367920 -121.615097 6.000000 
-378.099091 542.011780 -121.474297 6.000000 
-378.206909 542.421692 -121.293404 6.000000 
-378.509308 542.564880 -121.054100 6.000000 
-378.259399 543.524597 -121.108002 6.000000 
-378.320892 543.780518 -121.055603 6.000000 
-378.549011 544.629028 -120.932800 6.000000 
-378.489502 544.586670 -120.969200 6.000000 
-378.221191 545.300415 -121.263000 6.000000 
-378.064392 545.755127 -121.490799 6.000000 
-378.408386 546.438904 -121.450203 6.000000 
-378.244904 546.893372 -121.770500 6.000000 
-378.403412 547.487122 -121.951103 6.000000 
-378.219696 547.726501 -122.258904 6.000000 
-378.185394 548.381714 -122.785301 6.000000 
-378.531799 548.920715 -122.929703 6.000000 
-378.134399 537.400208 -126.278397 6.000000 
-378.077698 537.615479 -125.618698 6.000000 
-378.029907 537.910828 -124.962601 6.000000 
-377.569092 538.887817 -124.022598 6.000000 
-377.611603 539.215515 -123.582703 6.000000 
-377.906006 539.632202 -122.878502 6.000000 
-377.867615 540.225586 -122.473198 6.000000 
-377.619293 540.869202 -122.314598 6.000000 
-377.831085 541.022705 -122.055397 6.000000 
-377.562012 541.826599 -121.957001 6.000000 
-377.893311 542.296997 -121.555000 6.000000 
-377.665192 542.786682 -121.633797 6.000000 
-377.638794 543.189697 -121.599899 6.000000 
-377.902802 543.956299 -121.358398 6.000000 
-377.716614 544.420105 -121.524101 6.000000 
-377.682495 544.858582 -121.602303 6.000000 
-378.024689 545.399292 -121.432297 6.000000 
-377.743896 546.139099 -121.876099 6.000000 
-377.747986 546.449097 -121.994003 6.000000 
-377.626587 547.014709 -122.380600 6.000000 
-377.485809 547.388428 -122.750999 6.000000 
-377.789093 547.757080 -122.693703 6.000000 
-377.618103 548.428894 -123.465897 6.000000 
-377.724609 548.605225 -123.517601 6.000000 
-377.164612 538.189270 -126.256302 6.000000 
-377.346893 539.063782 -124.093002 6.000000 
-377.256897 539.339111 -123.881897 6.000000 
-377.313385 539.820618 -123.334099 6.000000 
-377.119812 540.374817 -123.108803 6.000000 
-377.191803 540.940308 -122.679298 6.000000 
-377.253204 541.528625 -122.341003 6.000000 
-377.268402 541.603577 -122.296997 6.000000 
-377.532501 542.341003 -121.833702 6.000000 
-377.083588 542.823792 -122.126198 6.000000 
-377.199585 543.166077 -121.973099 6.000000 
-376.889709 543.674988 -122.223396 6.000000 
-377.439697 544.320374 -121.743896 6.000000 
-377.303986 545.188721 -121.987000 6.000000 
-377.339508 545.082825 -121.933098 6.000000 
-377.169800 546.136292 -122.406700 6.000000 
-377.212494 546.182983 -122.383400 6.000000 
-377.289093 546.795776 -122.597504 6.000000 
-377.172485 547.269104 -123.014702 6.000000 
-377.288391 547.998291 -123.460899 6.000000 
-377.106903 548.194214 -123.905197 6.000000 
-377.311401 548.846008 -124.413597 6.000000 
-376.752106 538.736023 -125.780899 6.000000 
-376.475403 539.366699 -125.114304 6.000000 
-376.703186 539.749695 -124.192398 6.000000 
-376.545197 540.234192 -123.932999 6.000000 
-376.535614 540.628113 -123.621498 6.000000 
-376.653992 541.221191 -123.101700 6.000000 
-376.624390 541.526978 -122.983498 6.000000 
-376.863800 542.331421 -122.443398 6.000000 
-376.887695 542.703430 -122.333504 6.000000 
-376.893311 542.906616 -122.291801 6.000000 
-376.708710 543.746399 -122.400200 6.000000 
-376.791412 544.109314 -122.324097 6.000000 
-376.893799 545.097412 -122.356201 6.000000 
-377.005310 545.111023 -122.249397 6.000000 
-376.962799 545.987671 -122.558601 6.000000 
-376.934509 546.346985 -122.745201 6.000000 
-376.684692 546.803894 -123.292000 6.000000 
-376.791107 547.597412 -123.760597 6.000000 
-376.786407 547.995300 -124.173599 6.000000 
-376.867493 548.543274 -124.759697 6.000000 
-377.080597 549.237671 -125.661003 6.000000 
-376.318390 539.131409 -126.042900 6.000000 
-376.344299 539.686829 -124.881897 6.000000 
-376.414215 540.226501 -124.131798 6.000000 
-376.453491 540.629700 -123.729500 6.000000 
-376.052795 541.188293 -123.898003 6.000000 
-376.348999 541.935608 -123.128899 6.000000 
-376.141815 542.240601 -123.272598 6.000000 
-376.254395 542.932800 -122.963898 6.000000 
-376.484802 543.329773 -122.654404 6.000000 
-376.312103 543.988708 -122.827698 6.000000 
-376.537506 544.308472 -122.599503 6.000000 
-376.115509 544.821228 -123.165497 6.000000 
-376.170197 545.395325 -123.255798 6.000000 
-376.123688 545.739685 -123.451103 6.000000 
-376.183685 546.484192 -123.769203 6.000000 
-376.335907 546.577087 -123.610397 6.000000 
-376.061005 547.034912 -124.404800 6.000000 
-376.159088 547.853577 -125.213402 6.000000 
-376.200806 548.257385 -125.904900 6.000000 
-375.782501 539.747986 -126.322098 6.000000 
-376.101105 540.011902 -124.916901 6.000000 
-375.694000 540.747192 -124.878601 6.000000 
-375.843597 541.329529 -124.126099 6.000000 
-375.782104 541.643311 -124.033302 6.000000 
-375.561890 542.390930 -124.041298 6.000000 
-375.686798 542.887390 -123.710800 6.000000 
-375.498596 543.154297 -123.948502 6.000000 
-375.816010 543.876099 -123.440903 6.000000 
-375.581390 544.294617 -123.811203 6.000000 
-375.798187 544.978210 -123.631897 6.000000 
-375.738007 545.252686 -123.810204 6.000000 
-375.684998 546.088318 -124.318901 6.000000 
-375.891113 546.533020 -124.273903 6.000000 
-375.700897 547.029297 -125.152901 6.000000 
-375.637695 547.451172 -126.057999 6.000000 
-375.937988 547.645630 -125.445503 6.000000 
-375.108002 541.086121 -126.064499 6.000000 
-375.006409 540.987305 -126.890503 6.000000 
-375.333099 541.783020 -124.750099 6.000000 
-375.310303 542.175171 -124.573997 6.000000 
-375.138306 542.915588 -124.637299 6.000000 
-375.370605 543.089417 -124.169800 6.000000 
-375.117401 543.975220 -124.584602 6.000000 
-375.091888 544.423706 -124.704300 6.000000 
-375.101501 544.770203 -124.783302 6.000000 
-375.202515 545.366882 -124.832100 6.000000 
-375.418488 545.551086 -124.488899 6.000000 
-374.660187 541.911194 -127.150101 6.000000 
-374.775696 542.495605 -125.721603 6.000000 
-374.682007 542.976318 -125.798401 6.000000 
-374.709290 543.385315 -125.597900 6.000000 
-374.451202 544.171204 -126.942497 6.000000 
-374.983307 544.473816 -124.957199 6.000000 
-374.920990 545.471008 -125.646797 6.000000 
-350.707489 355.050903 -54.553299 6.000000 
-350.196594 353.643311 -54.572601 6.000000 
-350.315887 354.075287 -54.563099 6.000000 
-350.177185 354.753815 -54.517799 6.000000 
-350.530304 355.102997 -54.534199 6.000000 
-349.519287 352.247894 -54.535999 6.000000 
-349.920502 352.723785 -54.590599 6.000000 
-349.730499 353.244812 -54.547901 6.000000 
-349.589294 353.887787 -54.504002 6.000000 
-349.845306 354.223114 -54.512001 6.000000 
-349.549286 354.522888 -54.470001 6.000000 
-349.752411 355.340302 -54.450001 6.000000 
-349.688812 355.501801 -54.436298 6.000000 
-348.997101 350.895996 -54.384499 6.000000 
-349.224091 351.606903 -54.461899 6.000000 
-349.002899 352.038910 -54.491798 6.000000 
-349.264008 352.536194 -54.538101 6.000000 
-349.287201 353.282501 -54.504601 6.000000 
-349.235901 353.790497 -54.475601 6.000000 
-349.466614 353.851593 -54.494301 6.000000 
-349.499115 354.413513 -54.470501 6.000000 
-349.398193 355.515198 -54.408501 6.000000 
-349.266205 355.505096 -54.396599 6.000000 
-348.584198 350.534210 -54.330898 6.000000 
-348.602295 351.231506 -54.397099 6.000000 
-348.495789 351.716003 -54.437401 6.000000 
-348.501404 352.042786 -54.468201 6.000000 
-348.701385 352.416412 -54.491100 6.000000 
-348.710907 353.304596 -54.449600 6.000000 
-348.825409 353.798004 -54.436798 6.000000 
-349.048004 353.876312 -54.453899 6.000000 
-348.818787 354.441315 -54.405499 6.000000 
-348.962311 355.266510 -54.379501 6.000000 
-348.858704 355.507385 -54.358299 6.000000 
-348.539612 525.138794 -136.144501 6.000000 
-348.665894 525.443176 -136.140106 6.000000 
-348.569092 526.956726 -135.990601 6.000000 
-348.751099 527.700378 -135.957596 6.000000 
-348.653595 528.197083 -135.897003 6.000000 
-348.687988 528.934204 -135.838593 6.000000 
-348.643799 529.704529 -135.763397 6.000000 
-348.108307 349.489410 -54.210400 6.000000 
-348.050293 350.099609 -54.264702 6.000000 
-348.276489 350.836395 -54.344501 6.000000 
-348.352112 350.890594 -54.353199 6.000000 
-348.186493 351.610107 -54.412701 6.000000 
-348.397400 352.195801 -54.473202 6.000000 
-348.488403 352.658691 -54.459599 6.000000 
-348.359711 353.096008 -54.426701 6.000000 
-348.271912 353.507904 -54.398800 6.000000 
-348.329102 354.299805 -54.366402 6.000000 
-348.365814 354.603088 -54.355301 6.000000 
-348.366791 355.335510 -54.320499 6.000000 
-348.240692 355.469910 -54.302200 6.000000 
-347.919098 356.195190 -54.237499 6.000000 
-348.190186 525.596375 -136.042801 6.000000 
-348.405609 526.322571 -136.017303 6.000000 
-348.162689 526.427673 -135.965195 6.000000 
-348.183502 527.399292 -135.883896 6.000000 
-348.292297 528.009827 -135.849701 6.000000 
-348.252502 528.063293 -135.837997 6.000000 
-348.363312 528.560486 -135.813995 6.000000 
-348.297699 529.250977 -135.742004 6.000000 
-348.674286 529.633118 -135.774994 6.000000 
-347.568909 349.643890 -54.199100 6.000000 
-347.705688 350.107208 -54.249001 6.000000 
-347.604706 350.607208 -54.291000 6.000000 
-347.791901 351.368805 -54.371300 6.000000 
-347.832092 351.566895 -54.391701 6.000000 
-347.771912 352.191101 -54.414799 6.000000 
-347.600403 352.764008 -54.371399 6.000000 
-348.070099 353.373199 -54.386299 6.000000 
-347.780396 353.545593 -54.351002 6.000000 
-347.960205 353.936493 -54.349098 6.000000 
-347.594299 354.775787 -54.274799 6.000000 
-347.558899 355.270599 -54.247898 6.000000 
-347.887512 355.871704 -54.250000 6.000000 
-347.765594 524.820679 -136.035797 6.000000 
-347.677307 525.002197 -136.004395 6.000000 
-347.493896 525.632385 -135.916901 6.000000 
-347.696991 526.095215 -135.912201 6.000000 
-347.891113 526.471130 -135.913605 6.000000 
-347.834991 527.218689 -135.838196 6.000000 
-347.822296 527.723511 -135.791901 6.000000 
-347.650513 528.240479 -135.716293 6.000000 
-347.434113 528.398499 -135.664307 6.000000 
-347.941803 529.202271 -135.683502 6.000000 
-347.654785 529.451599 -135.611099 6.000000 
-346.909698 349.677612 -54.170799 6.000000 
-347.493011 350.224609 -54.249901 6.000000 
-347.279510 350.485504 -54.264099 6.000000 
-347.125214 350.984406 -54.303501 6.000000 
-347.054596 351.730713 -54.369598 6.000000 
-347.028595 352.380798 -54.336102 6.000000 
-347.121887 352.545410 -54.337002 6.000000 
-347.345703 353.162109 -54.328602 6.000000 
-347.072296 353.568909 -54.283501 6.000000 
-347.263214 353.862793 -54.287399 6.000000 
-347.382202 354.376495 -54.273998 6.000000 
-347.394592 355.253601 -54.233299 6.000000 
-347.331604 355.428986 -54.219101 6.000000 
-347.430908 356.287903 -54.187401 6.000000 
-347.114288 524.841125 -135.919205 6.000000 
-347.272308 525.481628 -135.891006 6.000000 
-347.206207 526.003906 -135.833694 6.000000 
-347.296112 526.589111 -135.798294 6.000000 
-347.269897 527.244690 -135.736298 6.000000 
-347.415192 527.607605 -135.730194 6.000000 
-347.351990 528.082214 -135.677505 6.000000 
-347.236115 528.564819 -135.614899 6.000000 
-347.409790 529.233521 -135.587006 6.000000 
-346.726715 349.420013 -54.137901 6.000000 
-346.500702 350.123596 -54.193001 6.000000 
-346.620697 350.534790 -54.237301 6.000000 
-347.047699 350.956787 -54.297199 6.000000 
-346.465912 351.758514 -54.313099 6.000000 
-346.733704 352.085602 -54.322601 6.000000 
-346.854797 352.548096 -54.311901 6.000000 
-346.725006 352.972687 -54.279499 6.000000 
-346.596710 353.568207 -54.238998 6.000000 
-346.750793 354.182709 -54.224098 6.000000 
-346.813293 354.746887 -54.203098 6.000000 
-346.808289 355.109314 -54.185299 6.000000 
-346.667694 355.716614 -54.143200 6.000000 
-346.790802 356.020111 -54.140202 6.000000 
-346.659698 356.503510 -54.104900 6.000000 
-346.748688 525.058228 -135.835693 6.000000 
-346.876099 525.604675 -135.810394 6.000000 
-346.931702 526.119690 -135.775101 6.000000 
-346.951599 526.375793 -135.756195 6.000000 
-346.632690 526.752686 -135.667007 6.000000 
-346.395996 527.808472 -135.532898 6.000000 
-346.604095 528.131592 -135.541306 6.000000 
-346.976410 528.514221 -135.573502 6.000000 
-346.536194 529.177185 -135.437897 6.000000 
-346.209106 349.492096 -54.119999 6.000000 
-346.315308 350.028015 -54.175201 6.000000 
-345.873108 350.704193 -54.217499 6.000000 
-346.392090 351.267700 -54.294998 6.000000 
-346.155792 351.579407 -54.292599 6.000000 
-346.324493 351.826599 -54.296600 6.000000 
-346.165192 352.718811 -54.239201 6.000000 
-346.073090 353.116394 -54.211601 6.000000 
-346.204102 353.443298 -54.208199 6.000000 
-346.247986 354.171997 -54.177601 6.000000 
-346.413513 354.747314 -54.165600 6.000000 
-346.244598 355.014008 -54.137100 6.000000 
-346.226288 355.560394 -54.109299 6.000000 
-346.139191 356.183807 -54.071400 6.000000 
-346.521912 356.720703 -54.081600 6.000000 
-346.433990 357.092010 -54.055698 6.000000 
-346.266907 524.992310 -135.756500 6.000000 
-345.988892 525.478699 -135.664993 6.000000 
-346.324005 526.221313 -135.659103 6.000000 
-346.189514 526.843811 -135.580902 6.000000 
-346.169098 526.935608 -135.569305 6.000000 
-346.064087 527.366699 -135.513000 6.000000 
-346.210907 528.126587 -135.472397 6.000000 
-345.947388 528.624817 -135.382401 6.000000 
-345.856415 529.237671 -135.312698 6.000000 
-345.986115 529.606873 -135.303299 6.000000 
-345.303406 349.999115 -54.124298 6.000000 
-345.820709 350.490692 -54.195000 6.000000 
-345.457397 351.100403 -54.234699 6.000000 
-345.992615 351.394714 -54.286201 6.000000 
-346.108704 351.871094 -54.274300 6.000000 
-345.683899 352.303101 -54.213902 6.000000 
-345.569397 353.188599 -54.160900 6.000000 
-345.566193 353.659790 -54.138199 6.000000 
-345.701996 353.881500 -54.140301 6.000000 
-345.708405 354.359100 -54.118099 6.000000 
-345.887787 355.370392 -54.086601 6.000000 
-345.781006 355.678009 -54.062000 6.000000 
-345.605408 355.989014 -54.030701 6.000000 
-345.651794 356.578888 -54.006901 6.000000 
-346.094604 357.261292 -54.015800 6.000000 
-345.961090 525.187317 -135.685593 6.000000 
-345.988708 526.282593 -135.594604 6.000000 
-345.748199 528.715210 -135.339401 6.000000 
-345.050903 349.442902 -54.060101 6.000000 
-345.312805 349.603088 -54.087601 6.000000 
-345.171509 349.844604 -54.103500 6.000000 
-345.252289 350.758514 -54.192902 6.000000 
-345.047211 351.260895 -54.203999 6.000000 
-345.289307 351.584991 -54.211201 6.000000 
-345.287598 352.122406 -54.185398 6.000000 
-345.252594 352.630005 -54.157902 6.000000 
-345.147186 352.808411 -54.139500 6.000000 
-345.610504 354.277100 -54.112801 6.000000 
-345.363708 354.197815 -54.093498 6.000000 
-345.400208 354.615601 -54.077000 6.000000 
-345.335785 355.286713 -54.038898 6.000000 
-345.278503 355.887695 -54.004902 6.000000 
-345.364014 356.424103 -53.987301 6.000000 
-345.030914 356.744110 -53.940899 6.000000 
-345.570496 357.381897 -53.960999 6.000000 
-345.042114 357.599396 -53.901100 6.000000 
-344.651886 349.651398 -54.060600 6.000000 
-344.765198 350.578094 -54.152802 6.000000 
-344.665100 350.700989 -54.159500 6.000000 
-344.772797 350.859589 -54.179501 6.000000 
-344.648285 351.518311 -54.154400 6.000000 
-344.671204 351.940094 -54.136398 6.000000 
-344.908813 352.755005 -54.119801 6.000000 
-344.978210 353.359589 -54.097401 6.000000 
-344.474609 353.488312 -54.044102 6.000000 
-344.392792 354.258087 -53.999699 6.000000 
-344.501190 354.675690 -53.989899 6.000000 
-344.862396 355.205994 -53.998501 6.000000 
-344.653992 355.604309 -53.959900 6.000000 
-344.861389 356.389404 -53.941898 6.000000 
-344.421997 356.523987 -53.894299 6.000000 
-344.893799 357.384705 -53.897400 6.000000 
-345.045197 357.342407 -53.913601 6.000000 
-344.856812 357.997101 -53.864799 6.000000 
-344.243591 349.751404 -54.050499 6.000000 
-344.213013 349.901489 -54.063099 6.000000 
-344.162689 350.556213 -54.122002 6.000000 
-344.080505 350.970886 -54.127300 6.000000 
-344.221985 351.733185 -54.104198 6.000000 
-344.306305 351.959900 -54.101299 6.000000 
-344.310089 352.825409 -54.060299 6.000000 
-344.608490 353.056885 -54.077202 6.000000 
-344.590912 353.591095 -54.050098 6.000000 
-344.146210 354.040100 -53.987000 6.000000 
-343.970490 354.742889 -53.937000 6.000000 
-344.140808 355.346985 -53.924198 6.000000 
-344.060608 355.775696 -53.896198 6.000000 
-344.072296 356.401794 -53.867401 6.000000 
-344.191010 356.739502 -53.862400 6.000000 
-344.183014 357.178192 -53.840698 6.000000 
-344.148193 357.814209 -53.807098 6.000000 
-344.341003 358.029510 -53.814899 6.000000 
-343.707214 349.530090 -54.004200 6.000000 
-343.387604 350.051697 -54.037800 6.000000 
-343.759186 350.764313 -54.107101 6.000000 
-343.730804 351.459808 -54.071301 6.000000 
-343.823700 351.655487 -54.070599 6.000000 
-343.696594 352.214386 -54.032001 6.000000 
-343.629089 352.546204 -54.009899 6.000000 
-343.826904 353.080109 -54.002899 6.000000 
-343.626190 353.338989 -53.971802 6.000000 
-343.770996 353.861389 -53.960400 6.000000 
-343.487091 354.908112 -53.883900 6.000000 
-343.617889 354.995392 -53.891998 6.000000 
-343.763092 355.610504 -53.876202 6.000000 
-343.704803 356.071289 -53.848801 6.000000 
-343.950897 356.534912 -53.849701 6.000000 
-343.651001 356.875610 -53.805302 6.000000 
-343.616913 357.644012 -53.844101 6.000000 
-343.972290 358.096100 -53.832401 6.000000 
-343.287598 349.601501 -53.990799 6.000000 
-343.127289 350.186096 -54.037899 6.000000 
-343.286896 350.513397 -54.074799 6.000000 
-343.473907 351.068207 -54.065899 6.000000 
-342.938110 351.620209 -53.989399 6.000000 
-343.509613 351.840698 -54.032398 6.000000 
-343.055695 352.620789 -53.952599 6.000000 
-342.845306 353.147003 -53.907799 6.000000 
-342.984314 353.688507 -53.895000 6.000000 
-343.042114 354.050201 -53.883202 6.000000 
-343.051392 354.541901 -53.860600 6.000000 
-343.194000 355.158813 -53.844501 6.000000 
-343.101593 355.617401 -53.813900 6.000000 
-343.184998 356.099091 -53.810799 6.000000 
-343.603485 356.321106 -53.827400 6.000000 
-342.788391 357.217590 -53.901299 6.000000 
-343.170898 357.790497 -53.892799 6.000000 
-342.947815 358.300201 -53.938099 6.000000 
-342.898499 358.797211 -53.966400 6.000000 
-342.793396 349.771515 -53.983200 6.000000 
-342.360992 349.974213 -53.981499 6.000000 
-342.693604 350.903503 -54.000702 6.000000 
-342.938690 351.308197 -54.004299 6.000000 
-343.038788 351.597992 -53.999802 6.000000 
-342.545288 352.170410 -53.926300 6.000000 
-342.592804 352.339386 -53.922699 6.000000 
-342.787506 353.009613 -53.909000 6.000000 
-342.634705 353.701385 -53.861599 6.000000 
-342.689697 354.071198 -53.849098 6.000000 
-342.681213 354.764404 -53.815300 6.000000 
-343.211212 354.824188 -53.862099 6.000000 
-342.742798 355.559998 -53.826500 6.000000 
-342.814911 356.349213 -53.857399 6.000000 
-342.417114 356.528992 -53.903198 6.000000 
-343.088989 357.215607 -53.873100 6.000000 
-342.791107 357.591400 -53.918900 6.000000 
-342.918701 358.295990 -53.940601 6.000000 
-342.854401 358.602997 -53.961300 6.000000 
-342.575104 358.942200 -54.003601 6.000000 
-342.063599 349.423492 -53.915798 6.000000 
-342.282501 350.167908 -53.995899 6.000000 
-341.957306 350.651794 -53.943699 6.000000 
-342.321014 350.683899 -53.976200 6.000000 
-342.208496 351.594513 -53.922298 6.000000 
-342.425415 352.389404 -53.904598 6.000000 
-341.967407 352.818787 -53.841301 6.000000 
-342.217896 353.205414 -53.846298 6.000000 
-342.168091 353.697815 -53.818100 6.000000 
-342.098602 354.120605 -53.818100 6.000000 
-342.069397 354.666992 -53.847000 6.000000 
-341.847900 355.037109 -53.885399 6.000000 
-342.324799 355.884888 -53.881199 6.000000 
-341.915405 356.386810 -53.943401 6.000000 
-342.145386 356.635803 -53.933800 6.000000 
-342.015594 357.154999 -53.970699 6.000000 
-342.263397 357.471313 -53.962601 6.000000 
-341.851013 358.347687 -54.042999 6.000000 
-342.346100 358.740295 -54.015400 6.000000 
-341.868805 359.453094 -54.094101 6.000000 
-341.465790 350.074402 -53.925201 6.000000 
-341.520203 350.545288 -53.907902 6.000000 
-341.689087 350.941101 -53.904800 6.000000 
-341.610596 351.786713 -53.857101 6.000000 
-341.761292 352.157806 -53.853500 6.000000 
-341.748291 352.727997 -53.825100 6.000000 
-341.882690 353.181702 -53.816002 6.000000 
-341.681213 353.549103 -53.830002 6.000000 
-341.697601 354.228485 -53.860802 6.000000 
-341.615997 354.403992 -53.876900 6.000000 
-341.455994 355.161194 -53.928001 6.000000 
-341.643097 355.817413 -53.941799 6.000000 
-341.727905 356.246307 -53.954300 6.000000 
-341.301208 356.924988 -54.026600 6.000000 
-341.637604 357.355988 -54.015701 6.000000 
-342.082886 358.041809 -54.006699 6.000000 
-341.726410 358.064301 -54.041199 6.000000 
-341.930695 358.599915 -54.047600 6.000000 
-341.808807 359.105499 -54.083099 6.000000 
-340.985107 349.824493 -53.892200 6.000000 
-341.213593 349.969086 -53.906700 6.000000 
-341.285614 350.283295 -53.898399 6.000000 
-341.300293 350.956085 -53.867699 6.000000 
-341.089111 351.469391 -53.823399 6.000000 
-341.209808 352.355408 -53.817200 6.000000 
-341.030304 352.344299 -53.833401 6.000000 
-341.222992 353.472198 -53.869202 6.000000 
-340.681091 354.060486 -53.948002 6.000000 
-341.020386 354.076111 -53.917000 6.000000 
-341.323608 354.798889 -53.923100 6.000000 
-341.235413 354.946411 -53.938400 6.000000 
-341.209198 355.494995 -53.966999 6.000000 
-341.398590 356.320801 -53.988701 6.000000 
-341.488892 356.529694 -53.990200 6.000000 
-341.005005 356.933105 -54.054798 6.000000 
-340.994385 357.831696 -54.098598 6.000000 
-341.199585 358.231506 -54.098499 6.000000 
-341.006012 358.673096 -54.137699 6.000000 
-341.354797 359.454803 -54.142300 6.000000 
-341.104095 359.595215 -54.172501 6.000000 
-340.751190 349.657288 -53.875000 6.000000 
-340.708008 349.844208 -53.865299 6.000000 
-340.513092 350.354889 -53.822601 6.000000 
-340.816010 351.295013 -53.806099 6.000000 
-340.342712 351.832397 -53.873402 6.000000 
-340.507599 352.168091 -53.874001 6.000000 
-340.610992 352.368195 -53.873798 6.000000 
-340.585205 353.029907 -53.907799 6.000000 
-340.726593 353.958191 -53.938900 6.000000 
-340.786285 354.256104 -53.947498 6.000000 
-340.722900 354.648804 -53.972198 6.000000 
-340.742615 355.033203 -53.988701 6.000000 
-340.796295 355.893097 -54.024700 6.000000 
-340.716705 356.358887 -54.054401 6.000000 
-340.840515 356.783508 -54.063000 6.000000 
-340.555298 357.220398 -54.110600 6.000000 
-340.672699 357.795105 -54.126999 6.000000 
-340.615387 358.009094 -54.142601 6.000000 
-340.520111 359.000305 -54.198799 6.000000 
-340.671204 359.276611 -54.197800 6.000000 
-340.606903 359.828094 -54.230202 6.000000 
-340.249695 350.262207 -53.807201 6.000000 
-339.974396 350.774811 -53.857399 6.000000 
-340.365204 350.900085 -53.826801 6.000000 
-339.982086 351.544006 -53.893398 6.000000 
-340.194214 352.183502 -53.904099 6.000000 
-340.366486 352.499695 -53.903000 6.000000 
-340.032288 353.189087 -53.967201 6.000000 
-339.960693 353.664307 -53.996601 6.000000 
-340.220306 354.079315 -53.992100 6.000000 
-340.130096 354.906799 -54.040001 6.000000 
-340.071899 355.348785 -54.066502 6.000000 
-340.173706 355.419800 -54.060398 6.000000 
-340.091797 356.324402 -54.111198 6.000000 
-339.930115 356.491791 -54.134399 6.000000 
-340.136810 357.421509 -54.159401 6.000000 
-340.029602 357.368500 -54.166901 6.000000 
-340.192688 358.290405 -54.195599 6.000000 
-340.176697 358.667511 -54.215099 6.000000 
-340.151215 359.167603 -54.241299 6.000000 
-339.963287 359.831512 -54.290600 6.000000 
-340.447205 360.242004 -54.264900 6.000000 
-339.413391 350.290802 -53.870499 6.000000 
-339.601990 350.645508 -53.886101 6.000000 
-339.829498 351.356598 -53.898800 6.000000 
-339.714813 351.242798 -53.904099 6.000000 
-339.727386 352.549896 -53.965302 6.000000 
-339.510712 352.816711 -53.998299 6.000000 
-339.452515 353.126587 -54.018501 6.000000 
-339.719208 353.738892 -54.022800 6.000000 
-339.533508 354.329010 -54.068298 6.000000 
-340.008514 354.383911 -54.026402 6.000000 
-339.705200 355.117401 -54.089802 6.000000 
-339.516388 355.689392 -54.134800 6.000000 
-339.801697 356.257812 -54.135201 6.000000 
-339.789703 356.955200 -54.169601 6.000000 
-339.655792 357.319885 -54.199600 6.000000 
-339.589813 357.773712 -54.227402 6.000000 
-339.543701 358.174103 -54.250801 6.000000 
-339.455688 359.011688 -54.299000 6.000000 
-339.736511 359.391602 -54.290901 6.000000 
-339.746307 359.641113 -54.301899 6.000000 
-339.547791 360.206299 -54.347401 6.000000 
-339.216492 349.473602 -53.825001 6.000000 
-339.218903 349.843292 -53.819302 6.000000 
-339.479706 350.692200 -53.899799 6.000000 
-339.193207 351.258911 -53.950699 6.000000 
-339.375793 351.547913 -53.950401 6.000000 
-339.186401 352.267303 -54.002399 6.000000 
-339.027710 352.946198 -54.049702 6.000000 
-339.147797 353.154205 -54.048401 6.000000 
-338.827209 353.949493 -54.116299 6.000000 
-339.276001 354.097504 -54.081402 6.000000 
-338.939911 354.571014 -54.135399 6.000000 
-339.152405 354.808289 -54.126900 6.000000 
-339.051605 355.685394 -54.178200 6.000000 
-339.256104 356.287994 -54.187801 6.000000 
-339.050812 356.668915 -54.225201 6.000000 
-339.118988 357.189392 -54.243599 6.000000 
-339.322205 357.555908 -54.242100 6.000000 
-338.906006 357.842804 -54.294701 6.000000 
-339.322113 358.738190 -54.298500 6.000000 
-338.632385 359.026703 -54.376900 6.000000 
-339.147491 359.569214 -54.354500 6.000000 
-339.503113 360.537415 -54.367401 6.000000 
-339.144714 360.489288 -54.398701 6.000000 
-338.807404 349.953094 -53.810001 6.000000 
-338.787506 350.254608 -53.837299 6.000000 
-338.424805 350.790588 -53.870201 6.000000 
-338.856812 351.332489 -53.941502 6.000000 
-338.590210 351.638306 -53.957401 6.000000 
-338.544800 352.322693 -54.019402 6.000000 
-338.558807 352.154785 -54.004299 6.000000 
-338.481506 353.302887 -54.108101 6.000000 
-338.401398 353.564789 -54.128799 6.000000 
-338.615295 353.910187 -54.134300 6.000000 
-338.582397 354.703186 -54.175201 6.000000 
-338.628510 355.166595 -54.193001 6.000000 
-338.629089 355.906799 -54.228298 6.000000 
-338.413910 356.040588 -54.254799 6.000000 
-338.899109 356.789795 -54.245098 6.000000 
-338.821198 357.197601 -54.271900 6.000000 
-338.441010 357.628296 -54.328098 6.000000 
-338.502014 358.296692 -54.354198 6.000000 
-338.493896 358.588501 -54.368900 6.000000 
-338.642792 359.226898 -54.385399 6.000000 
-338.476288 359.866394 -54.431499 6.000000 
-338.314301 360.282104 -54.466499 6.000000 
-338.635986 360.653900 -54.454201 6.000000 
-337.954712 349.516815 -53.881100 6.000000 
-337.944611 350.299286 -53.808300 6.000000 
-338.028809 350.481598 -53.822300 6.000000 
-338.174286 351.340088 -53.909698 6.000000 
-338.236603 351.643005 -53.941002 6.000000 
-337.887512 352.217499 -53.978100 6.000000 
-338.248291 353.080414 -54.076199 6.000000 
-337.937988 353.059998 -54.059399 6.000000 
-338.365295 353.524292 -54.123299 6.000000 
-338.120300 354.633911 -54.215199 6.000000 
-338.119202 354.702301 -54.218601 6.000000 
-338.272797 355.372101 -54.236099 6.000000 
-338.189209 355.615387 -54.255600 6.000000 
-337.740387 356.058197 -54.318699 6.000000 
-337.993896 356.612305 -54.321400 6.000000 
-338.066711 357.267914 -54.345901 6.000000 
-337.925415 357.910706 -54.389801 6.000000 
-338.091187 358.040009 -54.380501 6.000000 
-338.260101 358.886597 -54.404999 6.000000 
-338.219604 359.401611 -54.433399 6.000000 
-338.014404 359.746307 -54.469101 6.000000 
-338.065186 360.034393 -54.478001 6.000000 
-337.943115 360.568207 -54.514999 6.000000 
-337.981201 361.319092 -54.547199 6.000000 
-337.663788 350.061707 -53.844002 6.000000 
-337.587097 350.023804 -53.851200 6.000000 
-337.683685 350.581390 -53.815201 6.000000 
-337.758301 351.118103 -53.868999 6.000000 
-337.882294 351.493103 -53.910099 6.000000 
-337.512207 351.695312 -53.911301 6.000000 
-337.661499 352.531006 -53.996700 6.000000 
-337.483307 352.899414 -54.022701 6.000000 
-337.586212 353.786102 -54.110699 6.000000 
-337.745209 354.058105 -54.143700 6.000000 
-337.779114 354.588806 -54.195000 6.000000 
-337.060089 355.489685 -54.245098 6.000000 
-337.630005 355.500214 -54.273300 6.000000 
-337.283295 356.096100 -54.312500 6.000000 
-337.659088 356.587311 -54.351601 6.000000 
-337.472412 357.297791 -54.403000 6.000000 
-337.625305 357.959503 -54.420200 6.000000 
-337.664886 358.128693 -54.424599 6.000000 
-337.473999 358.972900 -54.482800 6.000000 
-337.200714 359.163605 -54.517502 6.000000 
-337.487305 359.749908 -54.518600 6.000000 
-337.638489 360.535492 -54.541901 6.000000 
-337.620514 360.631714 -54.548199 6.000000 
-337.685486 361.313202 -54.574600 6.000000 
-337.137512 349.543610 -53.917599 6.000000 
-337.239410 350.143494 -53.856602 6.000000 
-336.976715 350.633392 -53.823200 6.000000 
-336.675598 351.160706 -53.821400 6.000000 
-337.151611 351.637787 -53.888699 6.000000 
-337.176605 352.081787 -53.931499 6.000000 
-337.118896 352.405212 -53.959099 6.000000 
-337.021790 353.257294 -54.034199 6.000000 
-337.172791 353.713715 -54.084202 6.000000 
-336.986603 354.351501 -54.134998 6.000000 
-337.154388 354.717896 -54.177299 6.000000 
-336.933990 354.929108 -54.186600 6.000000 
-337.460693 355.660187 -54.280201 6.000000 
-337.185791 356.454803 -54.341499 6.000000 
-337.229309 356.927704 -54.387798 6.000000 
-337.069092 356.947296 -54.382000 6.000000 
-336.941986 357.721588 -54.448502 6.000000 
-337.457001 358.237915 -54.449299 6.000000 
-336.959686 358.793213 -54.522400 6.000000 
-336.973206 359.235809 -54.542198 6.000000 
-337.193207 359.729492 -54.545200 6.000000 
-337.341797 360.914001 -54.587799 6.000000 
-336.497589 349.619202 -53.941101 6.000000 
-336.494110 350.179688 -53.888802 6.000000 
-336.638611 350.488495 -53.852901 6.000000 
-336.574585 351.178986 -53.818199 6.000000 
-336.911102 351.493408 -53.863701 6.000000 
-336.772186 352.358490 -53.938099 6.000000 
-336.451996 352.619293 -53.947300 6.000000 
-336.577515 353.185699 -54.006302 6.000000 
-336.229095 353.542297 -54.023102 6.000000 
-336.823914 353.961914 -54.090801 6.000000 
-336.455597 354.743896 -54.146400 6.000000 
-336.931396 355.387207 -54.229401 6.000000 
-336.518005 355.494598 -54.219700 6.000000 
-336.223694 356.376312 -54.288200 6.000000 
-336.612000 356.670685 -54.334301 6.000000 
-336.674805 357.355499 -54.401402 6.000000 
-336.645691 357.905396 -54.451599 6.000000 
-336.616302 358.077911 -54.466301 6.000000 
-336.415588 358.679993 -54.513100 6.000000 
-336.995392 359.377197 -54.546902 6.000000 
-336.935486 359.452911 -54.556099 6.000000 
-336.074585 350.438812 -53.884499 6.000000 
-336.088013 350.435913 -53.884102 6.000000 
-335.985413 351.026398 -53.833698 6.000000 
-336.082703 351.577209 -53.832100 6.000000 
-336.227386 352.110107 -53.888901 6.000000 
-335.911896 352.715210 -53.930500 6.000000 
-336.225311 352.649689 -53.939301 6.000000 
-335.817993 354.100494 -54.055698 6.000000 
-335.790497 354.243408 -54.067799 6.000000 
-335.837402 354.585205 -54.102100 6.000000 
-336.051208 355.120392 -54.162399 6.000000 
-336.093994 355.513885 -54.201302 6.000000 
-336.243591 356.318390 -54.283699 6.000000 
-336.015411 356.433105 -54.283600 6.000000 
-336.076385 357.013489 -54.340900 6.000000 
-336.290710 357.479309 -54.394699 6.000000 
-336.004608 357.886108 -54.419102 6.000000 
-336.081207 358.517914 -54.481998 6.000000 
-335.867493 350.164612 -53.920101 6.000000 
-335.324310 350.381897 -53.925598 6.000000 
-335.696289 351.225800 -53.828899 6.000000 
-335.651306 351.434601 -53.811501 6.000000 
-335.682800 352.023102 -53.854698 6.000000 
-335.488708 352.888000 -53.926498 6.000000 
-335.525909 353.126495 -53.950600 6.000000 
-335.805511 353.833710 -54.030201 6.000000 
-335.357910 354.326111 -54.054901 6.000000 
-335.679901 354.636200 -54.099300 6.000000 
-335.601807 355.005096 -54.130100 6.000000 
-335.344788 355.714508 -54.184299 6.000000 
-335.737000 356.227692 -54.251099 6.000000 
-335.753510 356.539490 -54.281101 6.000000 
-335.781708 357.322388 -54.355701 6.000000 
-335.824493 357.978302 -54.419201 6.000000 
-335.097504 349.654114 -54.004601 6.000000 
-334.815704 350.139404 -53.972599 6.000000 
-334.905212 350.859497 -53.900902 6.000000 
-334.933990 351.098602 -53.877102 6.000000 
-334.850708 351.667694 -53.827801 6.000000 
-335.166504 352.289093 -53.855000 6.000000 
-334.884491 352.804993 -53.889900 6.000000 
-335.071686 353.282410 -53.943501 6.000000 
-334.888214 353.630615 -53.967400 6.000000 
-335.029510 354.117706 -54.019699 6.000000 
-335.058411 354.731903 -54.078602 6.000000 
-335.226410 355.495514 -54.158100 6.000000 
-335.162506 355.540802 -54.159302 6.000000 
-335.206512 356.163910 -54.219799 6.000000 
-334.667206 349.884308 -54.003601 6.000000 
-334.881104 349.807007 -54.000599 6.000000 
-334.908386 350.653412 -53.920101 6.000000 
-334.412994 351.013306 -53.910000 6.000000 
-334.614197 351.809387 -53.825802 6.000000 
-334.618713 352.072693 -53.808601 6.000000 
-334.797485 352.711304 -53.876900 6.000000 
-334.752106 352.789612 -53.882099 6.000000 
-334.821594 353.719604 -53.972500 6.000000 
-334.563995 354.406097 -54.024502 6.000000 
-334.482086 354.773499 -54.055000 6.000000 
-334.477386 355.129395 -54.088100 6.000000 
-334.555389 355.434509 -54.120399 6.000000 
-334.095703 349.683685 -54.049599 6.000000 
-334.012085 350.046906 -54.019600 6.000000 
-334.052307 350.303986 -53.993599 6.000000 
-334.208405 351.073395 -53.914101 6.000000 
-334.008301 351.740814 -53.861198 6.000000 
-334.102509 351.917511 -53.840099 6.000000 
-334.174988 352.439911 -53.821800 6.000000 
-334.068115 353.325195 -53.899601 6.000000 
-333.890686 353.810394 -53.936600 6.000000 
-333.851105 354.135193 -53.965099 6.000000 
-334.144409 354.718292 -54.033699 6.000000 
-333.658508 349.691589 -54.069801 6.000000 
-333.611115 350.038605 -54.039501 6.000000 
-333.600800 350.524109 -53.994598 6.000000 
-333.555511 350.936310 -53.958099 6.000000 
-333.571808 351.679993 -53.887699 6.000000 
-333.623993 351.912109 -53.863499 6.000000 
-333.589203 352.766113 -53.824402 6.000000 
-333.353302 353.173096 -53.851299 6.000000 
-333.687714 353.685303 -53.915199 6.000000 
-333.188202 349.722412 -54.089298 6.000000 
-333.016602 349.891510 -54.081699 6.000000 
-333.033508 350.579010 -54.016499 6.000000 
-333.255798 351.148987 -53.952499 6.000000 
-332.863800 351.129395 -53.973000 6.000000 
-332.949585 352.021606 -53.885399 6.000000 
-332.137299 349.943298 -54.118801 6.000000 
-332.390900 350.441589 -54.060001 6.000000 
-332.353302 351.037811 -54.006001 6.000000 
-332.008209 349.796814 -54.138699 6.000000 
-331.943695 349.928009 -54.129501 6.000000 
-332.096497 350.540710 -54.064800 6.000000 
-263.869385 510.836914 -124.892502 6.000000 
-263.776398 511.483887 -124.983498 6.000000 
-263.805511 511.690094 -125.019798 6.000000 
-263.683685 512.201172 -125.085800 6.000000 
-263.910797 513.321594 -125.291100 6.000000 
-263.662598 514.093323 -125.382896 6.000000 
-263.465088 510.329895 -124.762497 6.000000 
-263.107910 510.473907 -124.741501 6.000000 
-263.604095 511.506104 -124.965897 6.000000 
-263.347900 511.518402 -124.936401 6.000000 
-263.276093 512.493774 -125.082100 6.000000 
-263.453094 512.573975 -125.116501 6.000000 
-263.132202 513.281128 -125.189102 6.000000 
-263.102112 513.763428 -125.261803 6.000000 
-263.329803 514.508606 -125.407799 6.000000 
-263.230896 514.823120 -125.445396 6.000000 
-262.750092 510.614105 -124.719803 6.000000 
-262.752991 510.851898 -124.757797 6.000000 
-262.676605 511.138611 -124.793800 6.000000 
-262.806488 511.593597 -124.881798 6.000000 
-262.708191 512.445618 -125.004700 6.000000 
-262.474487 512.642212 -125.007103 6.000000 
-262.965698 513.324524 -125.175499 6.000000 
-262.597412 513.922485 -125.224998 6.000000 
-262.852814 514.299927 -125.316200 6.000000 
-262.656799 514.954102 -125.395699 6.000000 
-262.367310 510.464691 -124.649101 6.000000 
-262.179993 510.925293 -124.699097 6.000000 
-262.046600 511.415100 -124.760300 6.000000 
-261.970703 511.863098 -124.821899 6.000000 
-262.445892 512.173706 -124.929398 6.000000 
-262.313385 512.496582 -124.964302 6.000000 
-262.369385 513.373596 -125.110100 6.000000 
-262.270996 513.629822 -125.138603 6.000000 
-262.509705 514.384705 -125.287399 6.000000 
-262.373108 514.625427 -125.308800 6.000000 
-262.013489 510.228912 -124.568298 6.000000 
-261.842194 510.882690 -124.650803 6.000000 
-261.711792 511.350311 -124.708900 6.000000 
-261.815887 511.932312 -124.813797 6.000000 
-261.395905 512.265686 -124.815102 6.000000 
-261.494507 512.912598 -124.929604 6.000000 
-261.957397 513.220520 -125.035202 6.000000 
-261.679413 513.868103 -125.103699 6.000000 
-261.907593 514.440125 -125.222298 6.000000 
-261.916809 514.963318 -125.306297 6.000000 
-261.295105 510.148010 -124.467300 6.000000 
-261.369598 510.833099 -124.584999 6.000000 
-261.179810 511.390900 -124.650002 6.000000 
-261.116791 511.890198 -124.721298 6.000000 
-261.500885 512.396729 -124.848701 6.000000 
-261.223999 512.865295 -124.888901 6.000000 
-261.465302 513.369629 -124.998398 6.000000 
-261.527313 513.988525 -125.104103 6.000000 
-261.314697 514.042175 -125.086502 6.000000 
-261.519196 515.023682 -125.266998 6.000000 
-363.315094 518.300293 -130.236404 5.000000 
-317.788910 496.684906 -108.451797 5.000000 
-250.799103 350.996490 -55.320499 5.000000 
-310.507507 547.936707 -126.753700 5.000000 
-416.121399 349.986511 -67.923302 5.000000 
-416.138702 349.472504 -67.673698 5.000000 
-261.026611 363.311615 -70.889000 3.000000 
-446.631409 541.098999 -149.009293 3.000000 
-446.875488 541.125610 -148.826996 3.000000 
-260.263885 354.472992 -67.350899 3.000000 
-259.367188 354.442413 -67.490799 3.000000 
-259.354309 354.472595 -67.526901 3.000000 
-447.966492 544.107971 -150.256897 3.000000 
-448.449890 544.866821 -150.276306 3.000000 
